<svg id="Layer_1" data-name="Layer 1" xmlns="http://www.w3.org/2000/svg" viewBox="0 0 179.54 83.62"><defs><style>.cls-1{fill:#fff;}.cls-1,.cls-3,.cls-4,.cls-5{stroke:#231f20;}.cls-1,.cls-3,.cls-4,.cls-5,.cls-7{stroke-miterlimit:10;}.cls-2{fill:#231f20;}.cls-3,.cls-4,.cls-5,.cls-6,.cls-7,.cls-8{fill:none;}.cls-4,.cls-5,.cls-7{stroke-width:0.5px;}.cls-5{stroke-dasharray:0.99 0.99;}.cls-6{stroke:#f57f20;}.cls-6,.cls-8{stroke-linecap:square;stroke-linejoin:round;}.cls-7{stroke:#52a7dd;}.cls-8{stroke:#7d277d;}</style></defs><title>LIF-neuron</title><circle class="cls-1" cx="98.81" cy="46.92" r="12.16"/><path class="cls-2" d="M99.59,52.07l-1-8.09h1l.59,5.18c.09.83.14,1.3.15,1.83h0a17.39,17.39,0,0,1,.89-2L103.83,44h1.11l-4.26,8.09Z" transform="translate(-2.43 -1.24)"/><path class="cls-3" d="M56.08,33.34A66.29,66.29,0,0,1,66,32.73a69.81,69.81,0,0,1,16.77,2.41c1.24.34,2.69.77,4.28,1.33" transform="translate(-2.43 -1.24)"/><path class="cls-2" d="M92.6,38.75A30.35,30.35,0,0,0,82.9,40l3.36-3.79.16-5A30.48,30.48,0,0,0,92.6,38.75Z" transform="translate(-2.43 -1.24)"/><path class="cls-3" d="M52.67,48.71a65.57,65.57,0,0,1,9.43-3,69.35,69.35,0,0,1,16.84-1.78c1.29,0,2.8.09,4.48.24" transform="translate(-2.43 -1.24)"/><path class="cls-2" d="M89.4,45a29.9,29.9,0,0,0-9.09,3.6l2.32-4.49-1.08-4.94A30.4,30.4,0,0,0,89.4,45Z" transform="translate(-2.43 -1.24)"/><path class="cls-2" d="M126.91,31.1V25.71h.76l1.73,2.73a15.92,15.92,0,0,1,1,1.75h0c-.06-.72-.08-1.38-.08-2.21V25.71H131V31.1h-.71l-1.71-2.74a17,17,0,0,1-1-1.79h0c0,.68.06,1.33.06,2.23v2.3Z" transform="translate(-2.43 -1.24)"/><path class="cls-2" d="M132.54,29.29a1.25,1.25,0,0,0,1.33,1.35,2.57,2.57,0,0,0,1.07-.2l.12.5a3.16,3.16,0,0,1-1.28.24,1.8,1.8,0,0,1-1.91-1.95,1.88,1.88,0,0,1,1.82-2.09,1.64,1.64,0,0,1,1.6,1.82,2.06,2.06,0,0,1,0,.33Zm2.07-.5a1,1,0,0,0-1-1.14,1.17,1.17,0,0,0-1.08,1.14Z" transform="translate(-2.43 -1.24)"/><path class="cls-2" d="M139.4,30c0,.4,0,.76,0,1.06h-.62l0-.63h0a1.45,1.45,0,0,1-1.28.72c-.61,0-1.33-.34-1.33-1.7V27.23h.7v2.14c0,.74.22,1.23.86,1.23a1,1,0,0,0,1-1V27.23h.71Z" transform="translate(-2.43 -1.24)"/><path class="cls-2" d="M140.57,28.44c0-.46,0-.85,0-1.21h.61l0,.76h0a1.16,1.16,0,0,1,1.07-.85.64.64,0,0,1,.2,0v.66a.88.88,0,0,0-.24,0,1,1,0,0,0-1,.91,2.88,2.88,0,0,0,0,.33V31.1h-.69Z" transform="translate(-2.43 -1.24)"/><path class="cls-2" d="M146.61,29.13a1.9,1.9,0,0,1-1.93,2.06,1.84,1.84,0,0,1-1.86-2,1.89,1.89,0,0,1,1.92-2.06A1.84,1.84,0,0,1,146.61,29.13Zm-3.07,0c0,.85.48,1.49,1.17,1.49s1.18-.63,1.18-1.5c0-.66-.33-1.49-1.16-1.49S143.54,28.44,143.54,29.17Z" transform="translate(-2.43 -1.24)"/><path class="cls-2" d="M147.49,28.28c0-.4,0-.73,0-1.05h.63l0,.64h0a1.42,1.42,0,0,1,1.28-.73c.54,0,1.37.32,1.37,1.65V31.1h-.7V28.87c0-.63-.24-1.14-.9-1.14a1,1,0,0,0-.94.71.85.85,0,0,0-.05.33V31.1h-.71Z" transform="translate(-2.43 -1.24)"/><path class="cls-2" d="M153.54,30.38a1.76,1.76,0,0,0,.92.28c.51,0,.75-.26.75-.58s-.2-.52-.72-.71c-.69-.25-1-.63-1-1.09a1.2,1.2,0,0,1,1.34-1.14,1.92,1.92,0,0,1,.95.24l-.18.51a1.55,1.55,0,0,0-.79-.22c-.42,0-.65.24-.65.53s.23.46.74.65c.67.26,1,.59,1,1.17s-.52,1.16-1.44,1.16a2.19,2.19,0,0,1-1.09-.26Z" transform="translate(-2.43 -1.24)"/><path class="cls-2" d="M157.65,26.12v1.11h1v.54h-1v2.08c0,.48.13.75.52.75a1.86,1.86,0,0,0,.41,0l0,.52a1.59,1.59,0,0,1-.62.1,1,1,0,0,1-.76-.3,1.41,1.41,0,0,1-.27-1V27.77h-.6v-.54h.6V26.3Z" transform="translate(-2.43 -1.24)"/><path class="cls-2" d="M161.59,31.1l-.06-.49h0a1.43,1.43,0,0,1-1.18.58,1.1,1.1,0,0,1-1.19-1.11c0-.94.83-1.45,2.33-1.44v-.08a.8.8,0,0,0-.88-.9,1.92,1.92,0,0,0-1,.29l-.16-.46a2.4,2.4,0,0,1,1.27-.35c1.19,0,1.48.81,1.48,1.58v1.45a5.25,5.25,0,0,0,.06.93Zm-.1-2c-.77,0-1.64.12-1.64.88a.62.62,0,0,0,.66.67,1,1,0,0,0,.94-.65.85.85,0,0,0,0-.22Z" transform="translate(-2.43 -1.24)"/><path class="cls-2" d="M164.12,26.12v1.11h1v.54h-1v2.08c0,.48.13.75.53.75a1.75,1.75,0,0,0,.4,0l0,.52a1.69,1.69,0,0,1-.63.1,1,1,0,0,1-.76-.3,1.41,1.41,0,0,1-.27-1V27.77h-.6v-.54h.6V26.3Z" transform="translate(-2.43 -1.24)"/><path class="cls-2" d="M166.26,29.29a1.25,1.25,0,0,0,1.33,1.35,2.57,2.57,0,0,0,1.07-.2l.12.5a3.17,3.17,0,0,1-1.29.24,1.79,1.79,0,0,1-1.9-1.95,1.88,1.88,0,0,1,1.82-2.09A1.64,1.64,0,0,1,169,29a2.06,2.06,0,0,1,0,.33Zm2.07-.5a1,1,0,0,0-1-1.14,1.17,1.17,0,0,0-1.08,1.14Z" transform="translate(-2.43 -1.24)"/><path class="cls-2" d="M172.33,31.1l-.67-5.39h.67l.4,3.45c.06.56.09.87.1,1.22h0a12.63,12.63,0,0,1,.6-1.3l1.71-3.37h.73l-2.84,5.39Z" transform="translate(-2.43 -1.24)"/><path class="cls-2" d="M178.1,25.57a6.52,6.52,0,0,0-1.68,4.27,5.54,5.54,0,0,0,.44,2.2h-.5a4.62,4.62,0,0,1-.51-2.21,6.4,6.4,0,0,1,1.68-4.26Z" transform="translate(-2.43 -1.24)"/><path class="cls-2" d="M179.53,26.19l-.2,1h.93l-.1.52h-.93l-.36,1.88a3.27,3.27,0,0,0-.07.62.33.33,0,0,0,.37.37l.31,0,0,.52a1.81,1.81,0,0,1-.52.07.72.72,0,0,1-.81-.75,3.32,3.32,0,0,1,.08-.73l.38-2H178l.11-.52h.55l.17-.87Z" transform="translate(-2.43 -1.24)"/><path class="cls-2" d="M179.71,32a6.52,6.52,0,0,0,1.68-4.27,5.37,5.37,0,0,0-.44-2.2h.51a4.74,4.74,0,0,1,.51,2.21A6.4,6.4,0,0,1,180.28,32Z" transform="translate(-2.43 -1.24)"/><path class="cls-2" d="M128.56,58a2.52,2.52,0,0,1-2.5,2.84,2.47,2.47,0,0,1-2.43-2.74,2.57,2.57,0,0,1,2.51-2.83A2.45,2.45,0,0,1,128.56,58Zm-4.18.09c0,1.15.62,2.18,1.72,2.18s1.72-1,1.72-2.24c0-1.07-.56-2.19-1.72-2.19S124.38,57,124.38,58.13Z" transform="translate(-2.43 -1.24)"/><path class="cls-2" d="M132.7,59.74c0,.39,0,.75,0,1h-.63l0-.63h0a1.48,1.48,0,0,1-1.28.72c-.61,0-1.34-.34-1.34-1.7V56.92h.7v2.14c0,.74.23,1.24.87,1.24a1,1,0,0,0,.93-.64,1.09,1.09,0,0,0,.06-.36V56.92h.7Z" transform="translate(-2.43 -1.24)"/><path class="cls-2" d="M134.72,55.81v1.11h1v.54h-1v2.08c0,.48.14.76.53.76a1.81,1.81,0,0,0,.41,0l0,.52a1.63,1.63,0,0,1-.62.1.94.94,0,0,1-.76-.3,1.41,1.41,0,0,1-.28-1V57.46h-.6v-.54h.6V56Z" transform="translate(-2.43 -1.24)"/><path class="cls-2" d="M136.52,58.18c0-.49,0-.89,0-1.26h.63l0,.66h0a1.52,1.52,0,0,1,1.37-.75,1.75,1.75,0,0,1,1.64,2,1.83,1.83,0,0,1-1.76,2.08,1.38,1.38,0,0,1-1.19-.61h0v2.1h-.7Zm.7,1a1.2,1.2,0,0,0,0,.28,1.09,1.09,0,0,0,1.05.83c.75,0,1.18-.61,1.18-1.5s-.41-1.44-1.15-1.44a1.12,1.12,0,0,0-1.06.87,1,1,0,0,0-.05.29Z" transform="translate(-2.43 -1.24)"/><path class="cls-2" d="M144.31,59.74c0,.39,0,.75,0,1h-.62l0-.63h0a1.45,1.45,0,0,1-1.28.72c-.6,0-1.33-.34-1.33-1.7V56.92h.7v2.14c0,.74.23,1.24.87,1.24a1,1,0,0,0,.92-.64,1.1,1.1,0,0,0,.07-.36V56.92h.7Z" transform="translate(-2.43 -1.24)"/><path class="cls-2" d="M146.33,55.81v1.11h1v.54h-1v2.08c0,.48.13.76.53.76a1.63,1.63,0,0,0,.4,0l0,.52a1.65,1.65,0,0,1-.63.1,1,1,0,0,1-.76-.3,1.41,1.41,0,0,1-.27-1V57.46H145v-.54h.6V56Z" transform="translate(-2.43 -1.24)"/><path class="cls-2" d="M149.73,60.07a1.83,1.83,0,0,0,.93.28c.51,0,.75-.26.75-.57s-.2-.52-.72-.72c-.7-.24-1-.63-1-1.09A1.19,1.19,0,0,1,151,56.83a2,2,0,0,1,.95.24l-.17.51a1.62,1.62,0,0,0-.79-.22c-.42,0-.65.24-.65.53s.23.46.73.65c.67.26,1,.6,1,1.17s-.53,1.16-1.45,1.16a2.25,2.25,0,0,1-1.09-.26Z" transform="translate(-2.43 -1.24)"/><path class="cls-2" d="M153,58.18c0-.49,0-.89,0-1.26h.63l0,.66h0a1.52,1.52,0,0,1,1.38-.75,1.76,1.76,0,0,1,1.64,2,1.83,1.83,0,0,1-1.76,2.08,1.38,1.38,0,0,1-1.2-.61h0v2.1H153Zm.7,1a1.2,1.2,0,0,0,0,.28,1.09,1.09,0,0,0,1.06.83c.74,0,1.17-.61,1.17-1.5s-.41-1.44-1.15-1.44a1.12,1.12,0,0,0-1.06.87,1,1,0,0,0-.05.29Z" transform="translate(-2.43 -1.24)"/><path class="cls-2" d="M158.33,55.83a.44.44,0,1,1-.87,0,.43.43,0,0,1,.44-.44A.42.42,0,0,1,158.33,55.83Zm-.79,5V56.92h.71v3.87Z" transform="translate(-2.43 -1.24)"/><path class="cls-2" d="M160.11,58.7h0a4.7,4.7,0,0,1,.34-.44l1.14-1.34h.85L161,58.51l1.7,2.28h-.85l-1.34-1.85-.36.4v1.45h-.69V55.11h.69Z" transform="translate(-2.43 -1.24)"/><path class="cls-2" d="M163.56,59a1.24,1.24,0,0,0,1.33,1.35,2.57,2.57,0,0,0,1.07-.2l.12.5a3.17,3.17,0,0,1-1.29.24,1.79,1.79,0,0,1-1.9-1.95,1.88,1.88,0,0,1,1.81-2.09,1.64,1.64,0,0,1,1.6,1.83,2.33,2.33,0,0,1,0,.32Zm2.06-.5a1,1,0,0,0-1-1.14,1.16,1.16,0,0,0-1.08,1.14Z" transform="translate(-2.43 -1.24)"/><path class="cls-2" d="M167.08,60.07a1.83,1.83,0,0,0,.93.28c.51,0,.75-.26.75-.57s-.2-.52-.72-.72c-.69-.24-1-.63-1-1.09a1.19,1.19,0,0,1,1.33-1.14,2,2,0,0,1,1,.24l-.17.51a1.55,1.55,0,0,0-.79-.22c-.42,0-.65.24-.65.53s.23.46.73.65c.68.26,1,.6,1,1.17s-.53,1.16-1.45,1.16a2.18,2.18,0,0,1-1.08-.26Z" transform="translate(-2.43 -1.24)"/><path class="cls-2" d="M171.71,60.12a1.81,1.81,0,0,0,.83.24.67.67,0,0,0,.74-.63c0-.31-.14-.49-.54-.71a1.18,1.18,0,0,1-.69-1,1.27,1.27,0,0,1,1.4-1.2,1.71,1.71,0,0,1,.81.19l-.19.51a1.35,1.35,0,0,0-.67-.18.63.63,0,0,0-.69.59c0,.28.19.45.53.64a1.24,1.24,0,0,1,.73,1,1.32,1.32,0,0,1-1.48,1.27,1.72,1.72,0,0,1-1-.26Z" transform="translate(-2.43 -1.24)"/><path class="cls-2" d="M177.24,55.27a6.48,6.48,0,0,0-1.68,4.27,5.35,5.35,0,0,0,.44,2.19h-.5a4.59,4.59,0,0,1-.51-2.21,6.35,6.35,0,0,1,1.68-4.25Z" transform="translate(-2.43 -1.24)"/><path class="cls-2" d="M178.67,55.88l-.2,1h.93l-.1.52h-.93L178,59.32a3.46,3.46,0,0,0-.07.62.33.33,0,0,0,.36.37l.32,0,0,.52a1.79,1.79,0,0,1-.51.07.72.72,0,0,1-.81-.75,3.32,3.32,0,0,1,.08-.73l.38-2h-.56l.1-.52h.56l.16-.87Z" transform="translate(-2.43 -1.24)"/><path class="cls-2" d="M178.85,61.73a6.52,6.52,0,0,0,1.68-4.27,5.29,5.29,0,0,0-.44-2.19h.51a4.67,4.67,0,0,1,.5,2.2,6.4,6.4,0,0,1-1.68,4.26Z" transform="translate(-2.43 -1.24)"/><path class="cls-4" d="M102.77,35l.2-.45" transform="translate(-2.43 -1.24)"/><path class="cls-5" d="M103.41,33.68a15.58,15.58,0,0,1,6.42-6.5c5.68-3,11.38-1.29,13.6-.4" transform="translate(-2.43 -1.24)"/><path class="cls-4" d="M123.89,27c.22.09.37.17.45.21" transform="translate(-2.43 -1.24)"/><path class="cls-2" d="M98.38,75.36a7.22,7.22,0,0,1,1.27-.11,2.22,2.22,0,0,1,1.48.39,1.14,1.14,0,0,1,.45,1,1.26,1.26,0,0,1-.91,1.18v0a1.39,1.39,0,0,1,1.11,1.35,1.44,1.44,0,0,1-.45,1.08,2.76,2.76,0,0,1-1.87.5,8.65,8.65,0,0,1-1.08-.06Zm.7,2.21h.63c.74,0,1.17-.39,1.17-.91s-.48-.88-1.19-.88a3.16,3.16,0,0,0-.61,0Zm0,2.58a4.2,4.2,0,0,0,.58,0c.72,0,1.39-.26,1.39-1.05s-.64-1-1.4-1h-.57Z" transform="translate(-2.43 -1.24)"/><path class="cls-2" d="M103.48,75.72a.44.44,0,0,1-.87,0,.43.43,0,0,1,.44-.44A.42.42,0,0,1,103.48,75.72Zm-.79,5V76.81h.71v3.87Z" transform="translate(-2.43 -1.24)"/><path class="cls-2" d="M106.71,80.68l-.06-.49h0a1.45,1.45,0,0,1-1.18.57,1.1,1.1,0,0,1-1.19-1.11c0-.93.83-1.44,2.33-1.44v-.08a.8.8,0,0,0-.88-.89,1.9,1.9,0,0,0-1,.29l-.16-.47a2.4,2.4,0,0,1,1.27-.34c1.19,0,1.48.81,1.48,1.58v1.45a5.38,5.38,0,0,0,.06.93Zm-.1-2c-.77,0-1.64.12-1.64.87a.62.62,0,0,0,.66.67,1,1,0,0,0,.94-.64.85.85,0,0,0,0-.23Z" transform="translate(-2.43 -1.24)"/><path class="cls-2" d="M108.33,80a1.89,1.89,0,0,0,.92.28c.52,0,.76-.26.76-.58s-.2-.52-.72-.71c-.7-.25-1-.63-1-1.1a1.2,1.2,0,0,1,1.34-1.13,1.92,1.92,0,0,1,1,.24l-.18.51a1.46,1.46,0,0,0-.79-.22c-.41,0-.65.24-.65.52s.24.47.74.66c.67.26,1,.59,1,1.17s-.53,1.16-1.45,1.16a2.19,2.19,0,0,1-1.09-.27Z" transform="translate(-2.43 -1.24)"/><path class="cls-2" d="M114.07,75.72a.44.44,0,0,1-.87,0,.43.43,0,0,1,.44-.44A.42.42,0,0,1,114.07,75.72Zm-.78,5V76.81h.7v3.87Z" transform="translate(-2.43 -1.24)"/><path class="cls-2" d="M115.16,77.85c0-.4,0-.72,0-1h.62l0,.64h0a1.42,1.42,0,0,1,1.28-.73c.53,0,1.36.32,1.36,1.65v2.31h-.7V78.45c0-.63-.23-1.15-.9-1.15a1,1,0,0,0-.94.72,1.09,1.09,0,0,0,0,.33v2.33h-.7Z" transform="translate(-2.43 -1.24)"/><path class="cls-2" d="M119.6,78.07c0-.5,0-.9,0-1.26h.63l0,.66h0a1.51,1.51,0,0,1,1.37-.75,1.75,1.75,0,0,1,1.64,2,1.83,1.83,0,0,1-1.76,2.07,1.36,1.36,0,0,1-1.19-.6h0v2.1h-.69Zm.69,1a1.27,1.27,0,0,0,0,.29,1.07,1.07,0,0,0,1,.82c.75,0,1.18-.6,1.18-1.49s-.41-1.44-1.15-1.44a1.13,1.13,0,0,0-1.07.87,1.35,1.35,0,0,0,0,.29Z" transform="translate(-2.43 -1.24)"/><path class="cls-2" d="M127.39,79.62c0,.4,0,.75,0,1.06h-.62l0-.64h0a1.43,1.43,0,0,1-1.28.72c-.61,0-1.33-.33-1.33-1.69V76.81h.7V79c0,.73.22,1.23.86,1.23a1,1,0,0,0,.93-.64,1,1,0,0,0,.06-.36V76.81h.71Z" transform="translate(-2.43 -1.24)"/><path class="cls-2" d="M129.41,75.7v1.11h1v.53h-1v2.09c0,.48.13.75.52.75a1.33,1.33,0,0,0,.41-.05l0,.53a1.59,1.59,0,0,1-.62.1,1,1,0,0,1-.76-.3,1.44,1.44,0,0,1-.27-1V77.34h-.6v-.53h.6v-.93Z" transform="translate(-2.43 -1.24)"/><path class="cls-2" d="M134.24,75.29l-1,5.39h-.66l1-5.39Z" transform="translate(-2.43 -1.24)"/><path class="cls-2" d="M135.31,80l-.3,1.46h0a1,1,0,0,1,.8-.46c.49,0,.68.41.68.81a1.5,1.5,0,0,1-1.41,1.55c-.39,0-.69-.16-.69-.58,0-.11,0-.24,0-.35l.49-2.43Zm-.49,2.44a1.09,1.09,0,0,0,0,.28c0,.22.12.34.37.34.58,0,.94-.7.94-1.2,0-.28-.12-.54-.43-.54s-.68.35-.8.88Z" transform="translate(-2.43 -1.24)"/><path class="cls-2" d="M136.76,83.34l.44-2.26h.38l-.43,2.26Zm.51-2.89a.25.25,0,0,1,.25-.26.22.22,0,0,1,.23.24.25.25,0,0,1-.26.26A.22.22,0,0,1,137.27,80.45Z" transform="translate(-2.43 -1.24)"/><path class="cls-2" d="M139.33,83.34a5.22,5.22,0,0,1,0-.58h0a1,1,0,0,1-.88.63.68.68,0,0,1-.65-.75A1.58,1.58,0,0,1,139.41,81a2.11,2.11,0,0,1,.6.09l-.22,1.17a4.87,4.87,0,0,0-.1,1Zm.25-2a1.35,1.35,0,0,0-.27,0,1.21,1.21,0,0,0-1.07,1.23c0,.26.09.5.39.5s.71-.42.82-1Z" transform="translate(-2.43 -1.24)"/><path class="cls-2" d="M140.28,83a1.13,1.13,0,0,0,.49.14.39.39,0,0,0,.43-.37c0-.18-.08-.29-.32-.42a.66.66,0,0,1-.4-.57.74.74,0,0,1,.82-.7,1,1,0,0,1,.47.11l-.11.3a.75.75,0,0,0-.39-.11.36.36,0,0,0-.4.34c0,.17.1.27.3.38a.71.71,0,0,1,.43.59.77.77,0,0,1-.86.75,1,1,0,0,1-.57-.16Z" transform="translate(-2.43 -1.24)"/><path class="cls-2" d="M34.38,25.72a2.49,2.49,0,0,0,1.25.35c.71,0,1.12-.38,1.12-.92s-.28-.79-1-1.07c-.88-.31-1.42-.77-1.42-1.53a1.54,1.54,0,0,1,1.74-1.46,2.53,2.53,0,0,1,1.19.26l-.19.57a2.12,2.12,0,0,0-1-.26c-.74,0-1,.44-1,.81s.33.75,1.07,1c.91.35,1.38.79,1.38,1.58s-.62,1.56-1.89,1.56a2.83,2.83,0,0,1-1.38-.35Z" transform="translate(-2.43 -1.24)"/><path class="cls-2" d="M38.59,22.7,39.44,25c.08.26.18.56.24.79h0c.07-.23.15-.52.25-.8l.76-2.27h.75L40.4,25.45a5.91,5.91,0,0,1-1.32,2.43,1.92,1.92,0,0,1-.87.45L38,27.74a1.9,1.9,0,0,0,.61-.34,2.17,2.17,0,0,0,.59-.79.35.35,0,0,0,.06-.16.76.76,0,0,0,0-.19L37.82,22.7Z" transform="translate(-2.43 -1.24)"/><path class="cls-2" d="M42.1,23.74c0-.4,0-.72,0-1h.62l0,.64h0A1.42,1.42,0,0,1,44,22.61c.53,0,1.36.32,1.36,1.65v2.31h-.7V24.33c0-.62-.23-1.14-.89-1.14a1,1,0,0,0-.95.72,1.09,1.09,0,0,0-.05.33v2.33h-.7Z" transform="translate(-2.43 -1.24)"/><path class="cls-2" d="M48.68,26.57l0-.49h0a1.44,1.44,0,0,1-1.18.57,1.1,1.1,0,0,1-1.18-1.11c0-.93.83-1.45,2.32-1.44V24a.8.8,0,0,0-.88-.89,1.86,1.86,0,0,0-1,.29L46.52,23a2.37,2.37,0,0,1,1.27-.34c1.18,0,1.47.81,1.47,1.58v1.45a5.38,5.38,0,0,0,.06.93Zm-.1-2c-.77,0-1.64.12-1.64.87a.62.62,0,0,0,.66.67,1,1,0,0,0,.94-.64,1,1,0,0,0,0-.23Z" transform="translate(-2.43 -1.24)"/><path class="cls-2" d="M50.4,24c0-.5,0-.9,0-1.26H51l0,.66h0a1.54,1.54,0,0,1,1.38-.75,1.75,1.75,0,0,1,1.64,2,1.83,1.83,0,0,1-1.76,2.08,1.36,1.36,0,0,1-1.19-.6h0v2.1H50.4Zm.69,1a2.58,2.58,0,0,0,0,.29,1.09,1.09,0,0,0,1.06.82c.74,0,1.17-.61,1.17-1.49s-.4-1.44-1.15-1.44a1.12,1.12,0,0,0-1.06.87,1.35,1.35,0,0,0,0,.29Z" transform="translate(-2.43 -1.24)"/><path class="cls-2" d="M55.8,21.58V22.7h1v.53h-1v2.09c0,.48.13.75.52.75a1.33,1.33,0,0,0,.41-.05l0,.53a1.59,1.59,0,0,1-.62.1,1,1,0,0,1-.76-.3,1.44,1.44,0,0,1-.27-1V23.23h-.6V22.7h.6v-.93Z" transform="translate(-2.43 -1.24)"/><path class="cls-2" d="M58.38,21.61a.44.44,0,0,1-.87,0,.43.43,0,0,1,.44-.44A.42.42,0,0,1,58.38,21.61Zm-.78,5V22.7h.7v3.87Z" transform="translate(-2.43 -1.24)"/><path class="cls-2" d="M62.23,26.42a2.56,2.56,0,0,1-1.11.23,1.85,1.85,0,0,1-1.93-2,2,2,0,0,1,2.08-2.05,2.27,2.27,0,0,1,1,.2l-.16.54a1.59,1.59,0,0,0-.81-.18,1.46,1.46,0,0,0,0,2.91,2,2,0,0,0,.87-.2Z" transform="translate(-2.43 -1.24)"/><path class="cls-2" d="M65.53,21.61a.44.44,0,0,1-.87,0,.43.43,0,0,1,.44-.44A.42.42,0,0,1,65.53,21.61Zm-.78,5V22.7h.7v3.87Z" transform="translate(-2.43 -1.24)"/><path class="cls-2" d="M66.62,23.74c0-.4,0-.72,0-1h.62l0,.64h0a1.42,1.42,0,0,1,1.28-.73c.53,0,1.36.32,1.36,1.65v2.31h-.7V24.33c0-.62-.23-1.14-.9-1.14a1,1,0,0,0-.94.72,1.09,1.09,0,0,0-.05.33v2.33h-.7Z" transform="translate(-2.43 -1.24)"/><path class="cls-2" d="M71.06,24c0-.5,0-.9,0-1.26h.63l0,.66h0a1.51,1.51,0,0,1,1.37-.75,1.75,1.75,0,0,1,1.64,2A1.83,1.83,0,0,1,73,26.65a1.36,1.36,0,0,1-1.19-.6h0v2.1h-.7Zm.7,1a1.36,1.36,0,0,0,0,.29,1.07,1.07,0,0,0,1,.82c.75,0,1.18-.61,1.18-1.49s-.41-1.44-1.15-1.44A1.13,1.13,0,0,0,71.8,24a1.35,1.35,0,0,0,0,.29Z" transform="translate(-2.43 -1.24)"/><path class="cls-2" d="M78.85,25.51c0,.4,0,.75,0,1.06h-.62l0-.64h0a1.43,1.43,0,0,1-1.28.72c-.6,0-1.33-.33-1.33-1.69V22.7h.7v2.14c0,.73.22,1.23.86,1.23a1,1,0,0,0,.93-.64,1,1,0,0,0,.07-.36V22.7h.7Z" transform="translate(-2.43 -1.24)"/><path class="cls-2" d="M80.87,21.58V22.7h1v.53h-1v2.09c0,.48.13.75.52.75A1.33,1.33,0,0,0,81.8,26l0,.53a1.59,1.59,0,0,1-.62.1,1,1,0,0,1-.76-.3,1.44,1.44,0,0,1-.27-1V23.23h-.6V22.7h.6v-.93Z" transform="translate(-2.43 -1.24)"/><path class="cls-2" d="M82.57,25.85a1.93,1.93,0,0,0,.93.28c.51,0,.75-.26.75-.58s-.2-.52-.72-.71c-.69-.25-1-.63-1-1.1a1.19,1.19,0,0,1,1.33-1.13,1.89,1.89,0,0,1,1,.24l-.17.51a1.46,1.46,0,0,0-.79-.22c-.42,0-.65.24-.65.52s.23.47.73.66c.68.25,1,.59,1,1.17s-.53,1.16-1.45,1.16a2.18,2.18,0,0,1-1.08-.27Z" transform="translate(-2.43 -1.24)"/><path class="cls-2" d="M88.87,21.18l-1,5.39h-.66l1-5.39Z" transform="translate(-2.43 -1.24)"/><path class="cls-2" d="M89,28.84a1.09,1.09,0,0,0,.49.14.39.39,0,0,0,.43-.37c0-.18-.08-.29-.32-.42a.66.66,0,0,1-.4-.57.74.74,0,0,1,.81-.7.94.94,0,0,1,.48.11l-.11.29a.92.92,0,0,0-.39-.1.37.37,0,0,0-.41.34c0,.17.11.27.31.38a.73.73,0,0,1,.43.59.78.78,0,0,1-.87.75,1,1,0,0,1-.56-.16Z" transform="translate(-2.43 -1.24)"/><path class="cls-2" d="M91.18,27l.22,1.22c0,.26.08.42.1.59h0c.06-.14.13-.3.25-.55L92.33,27h.41l-.84,1.72a4.39,4.39,0,0,1-.78,1.18,1.49,1.49,0,0,1-.66.4l-.1-.34a1.25,1.25,0,0,0,.42-.21,1.76,1.76,0,0,0,.43-.52.22.22,0,0,0,0-.11L90.77,27Z" transform="translate(-2.43 -1.24)"/><path class="cls-2" d="M92.74,29.23l.3-1.6c0-.25.08-.47.11-.66h.34l0,.44h0a1,1,0,0,1,.83-.49.55.55,0,0,1,.58.63,2.47,2.47,0,0,1,0,.36l-.26,1.32h-.38l.24-1.3a1.45,1.45,0,0,0,0-.29c0-.23-.09-.4-.36-.4a1,1,0,0,0-.77.89l-.2,1.1Z" transform="translate(-2.43 -1.24)"/><path class="cls-2" d="M3.12,48.07v5.39H2.43V48.07Z" transform="translate(-2.43 -1.24)"/><path class="cls-2" d="M4.39,50.64c0-.4,0-.73,0-1H5l0,.64H5a1.42,1.42,0,0,1,1.28-.73c.54,0,1.37.32,1.37,1.65v2.31H7V51.23c0-.62-.23-1.14-.89-1.14a1,1,0,0,0-1,1v2.33H4.39Z" transform="translate(-2.43 -1.24)"/><path class="cls-2" d="M8.83,50.85c0-.49,0-.89,0-1.26h.63l0,.67h0a1.51,1.51,0,0,1,1.38-.76,1.76,1.76,0,0,1,1.64,2,1.83,1.83,0,0,1-1.76,2.08,1.33,1.33,0,0,1-1.19-.61h0V55h-.7Zm.7,1a2.19,2.19,0,0,0,0,.28,1.09,1.09,0,0,0,1.06.83c.74,0,1.17-.61,1.17-1.5s-.41-1.44-1.15-1.44a1.12,1.12,0,0,0-1.06.87,1,1,0,0,0-.05.29Z" transform="translate(-2.43 -1.24)"/><path class="cls-2" d="M16.62,52.41c0,.4,0,.75,0,1.05H16l0-.63h0a1.48,1.48,0,0,1-1.28.72c-.61,0-1.34-.34-1.34-1.7V49.59h.7v2.14c0,.74.23,1.24.87,1.24a1,1,0,0,0,.93-.64,1.09,1.09,0,0,0,.06-.36V49.59h.7Z" transform="translate(-2.43 -1.24)"/><path class="cls-2" d="M18.64,48.48v1.11h1v.54h-1v2.08c0,.48.14.76.53.76a1.81,1.81,0,0,0,.41,0l0,.53a1.91,1.91,0,0,1-.63.09,1,1,0,0,1-.76-.29,1.45,1.45,0,0,1-.27-1V50.13h-.6v-.54H18v-.93Z" transform="translate(-2.43 -1.24)"/><path class="cls-2" d="M20.35,52.74a1.76,1.76,0,0,0,.92.28c.51,0,.75-.25.75-.57s-.2-.52-.72-.72c-.69-.24-1-.63-1-1.09a1.2,1.2,0,0,1,1.34-1.14,2,2,0,0,1,.95.24l-.18.52A1.45,1.45,0,0,0,21.6,50c-.42,0-.65.24-.65.53s.23.46.74.65c.67.26,1,.6,1,1.17s-.52,1.16-1.44,1.16a2.19,2.19,0,0,1-1.09-.26Z" transform="translate(-2.43 -1.24)"/><path class="cls-2" d="M25.21,52.74a1.83,1.83,0,0,0,.93.28c.51,0,.75-.25.75-.57s-.2-.52-.72-.72c-.7-.24-1-.63-1-1.09a1.19,1.19,0,0,1,1.33-1.14,2,2,0,0,1,.95.24l-.17.52a1.52,1.52,0,0,0-.8-.23c-.41,0-.64.24-.64.53s.23.46.73.65c.67.26,1,.6,1,1.17s-.53,1.16-1.45,1.16A2.25,2.25,0,0,1,25,53.28Z" transform="translate(-2.43 -1.24)"/><path class="cls-2" d="M28.47,50.85c0-.49,0-.89,0-1.26h.63l0,.67h0a1.51,1.51,0,0,1,1.38-.76,1.76,1.76,0,0,1,1.64,2,1.83,1.83,0,0,1-1.76,2.08,1.36,1.36,0,0,1-1.2-.61h0V55h-.7Zm.7,1a1.2,1.2,0,0,0,0,.28,1.09,1.09,0,0,0,1.06.83c.74,0,1.17-.61,1.17-1.5s-.41-1.44-1.15-1.44a1.12,1.12,0,0,0-1.06.87,1,1,0,0,0,0,.29Z" transform="translate(-2.43 -1.24)"/><path class="cls-2" d="M33.81,48.5a.44.44,0,1,1-.87,0,.43.43,0,0,1,.44-.44A.42.42,0,0,1,33.81,48.5Zm-.79,5V49.59h.71v3.87Z" transform="translate(-2.43 -1.24)"/><path class="cls-2" d="M35.59,51.37h0a4.7,4.7,0,0,1,.34-.44l1.14-1.34h.85l-1.5,1.59,1.7,2.28h-.85L36,51.61l-.36.4v1.45H34.9V47.78h.69Z" transform="translate(-2.43 -1.24)"/><path class="cls-2" d="M39,51.65A1.24,1.24,0,0,0,40.37,53a2.57,2.57,0,0,0,1.07-.2l.12.5a3.17,3.17,0,0,1-1.29.24,1.79,1.79,0,0,1-1.9-1.95,1.88,1.88,0,0,1,1.81-2.09,1.64,1.64,0,0,1,1.6,1.83,2.33,2.33,0,0,1,0,.32Zm2.06-.5a1,1,0,0,0-1-1.14,1.16,1.16,0,0,0-1.08,1.14Z" transform="translate(-2.43 -1.24)"/><path class="cls-2" d="M42.56,52.74a1.83,1.83,0,0,0,.93.28c.51,0,.75-.25.75-.57s-.2-.52-.72-.72c-.7-.24-1-.63-1-1.09a1.19,1.19,0,0,1,1.33-1.14,2,2,0,0,1,1,.24l-.17.52a1.45,1.45,0,0,0-.79-.23c-.42,0-.65.24-.65.53s.23.46.73.65c.68.26,1,.6,1,1.17s-.53,1.16-1.45,1.16a2.18,2.18,0,0,1-1.08-.26Z" transform="translate(-2.43 -1.24)"/><line class="cls-3" x1="90.04" y1="83.5" x2="94.61" y2="65.56"/><path class="cls-2" d="M98.53,61a30.18,30.18,0,0,0,2.5,9.46l-4.19-2.84-5,.49A30.18,30.18,0,0,0,98.53,61Z" transform="translate(-2.43 -1.24)"/><line class="cls-3" x1="111.12" y1="46.89" x2="141.6" y2="46.74"/><path class="cls-2" d="M150.07,48a30.44,30.44,0,0,0-8.53,4.8l1.7-4.76-1.74-4.75A30.19,30.19,0,0,0,150.07,48Z" transform="translate(-2.43 -1.24)"/><g id="figure_1" data-name="figure 1"><g id="axes_1" data-name="axes 1"><g id="line2d_16" data-name="line2d 16"><path class="cls-6" d="M62.58,19.69l2-10.47,2.05,2.17,2-9.65,2,2.92,2,1.57,2.05,1.42,2,1.27,2,1.14,2.05,1,2,.92,2,.84,2,.75,2,.68,2,.61,2,.54" transform="translate(-2.43 -1.24)"/></g></g></g><line class="cls-7" x1="20.63" y1="34.75" x2="20.53" y2="45.06"/><line class="cls-7" x1="15.6" y1="34.7" x2="15.51" y2="45.01"/><line class="cls-7" x1="41.6" y1="34.95" x2="41.5" y2="45.26"/><line class="cls-7" x1="155.74" y1="41.22" x2="155.64" y2="51.53"/><line class="cls-7" x1="150.72" y1="41.18" x2="150.62" y2="51.48"/><line class="cls-7" x1="176.71" y1="41.43" x2="176.61" y2="51.74"/><g id="line2d_17" data-name="line2d 17"><path class="cls-8" d="M126.11,23.91h1l1-4,1-2.82,1-1.9,1-1.19,1-.66,1-.26,1,0,1,.24,1,.38,1,.48,1,.54,1,.57,1,.59,1-3.45,1-2.26,1-1.35,1-.67,1-.17,1,.2,1,.46,1,.63,1,.75,1,.82,1,.85,1,.86,1,.84,1,.82,1,.78,1,.75,1,.7,1,.65,1,.6,1,.56,1,.52,1,.48,1,.43,1,.4,1,.36,1,.34,1,.3,1,.27" transform="translate(-2.43 -1.24)"/></g></svg>