<?xml version="1.0" encoding="UTF-8" standalone="no"?>
<!-- Created with Inkscape (http://www.inkscape.org/) -->

<svg
   xmlns:dc="http://purl.org/dc/elements/1.1/"
   xmlns:cc="http://creativecommons.org/ns#"
   xmlns:rdf="http://www.w3.org/1999/02/22-rdf-syntax-ns#"
   xmlns:svg="http://www.w3.org/2000/svg"
   xmlns="http://www.w3.org/2000/svg"
   xmlns:sodipodi="http://sodipodi.sourceforge.net/DTD/sodipodi-0.dtd"
   xmlns:inkscape="http://www.inkscape.org/namespaces/inkscape"
   width="120.55614mm"
   height="91.162468mm"
   viewBox="0 0 120.55614 91.162468"
   version="1.1"
   id="svg64498"
   inkscape:version="0.92.4 (f8dce91, 2019-08-02)"
   sodipodi:docname="echo_state_property.svg">
  <defs
     id="defs64492">
    <marker
       inkscape:stockid="Arrow1Send"
       orient="auto"
       refY="0"
       refX="0"
       id="marker65299"
       style="overflow:visible"
       inkscape:isstock="true">
      <path
         id="path65297"
         d="M 0,0 5,-5 -12.5,0 5,5 Z"
         style="fill:#000000;fill-opacity:1;fill-rule:evenodd;stroke:#000000;stroke-width:1.00000003pt;stroke-opacity:1"
         transform="matrix(-0.2,0,0,-0.2,-1.2,0)"
         inkscape:connector-curvature="0" />
    </marker>
    <marker
       inkscape:stockid="Arrow1Send"
       orient="auto"
       refY="0"
       refX="0"
       id="Arrow1Send"
       style="overflow:visible"
       inkscape:isstock="true">
      <path
         id="path22947"
         d="M 0,0 5,-5 -12.5,0 5,5 Z"
         style="fill:#000000;fill-opacity:1;fill-rule:evenodd;stroke:#000000;stroke-width:1.00000003pt;stroke-opacity:1"
         transform="matrix(-0.2,0,0,-0.2,-1.2,0)"
         inkscape:connector-curvature="0" />
    </marker>
    <marker
       inkscape:stockid="Arrow2Mend"
       orient="auto"
       refY="0"
       refX="0"
       id="Arrow2Mend"
       style="overflow:visible"
       inkscape:isstock="true">
      <path
         id="path22959"
         style="fill:#000000;fill-opacity:1;fill-rule:evenodd;stroke:#000000;stroke-width:0.625;stroke-linejoin:round;stroke-opacity:1"
         d="M 8.7185878,4.0337352 -2.2072895,0.01601326 8.7185884,-4.0017078 c -1.7454984,2.3720609 -1.7354408,5.6174519 -6e-7,8.035443 z"
         transform="scale(-0.6)"
         inkscape:connector-curvature="0" />
    </marker>
    <marker
       inkscape:stockid="Arrow1Mend"
       orient="auto"
       refY="0"
       refX="0"
       id="Arrow1Mend"
       style="overflow:visible"
       inkscape:isstock="true">
      <path
         id="path22941"
         d="M 0,0 5,-5 -12.5,0 5,5 Z"
         style="fill:#000000;fill-opacity:1;fill-rule:evenodd;stroke:#000000;stroke-width:1.00000003pt;stroke-opacity:1"
         transform="matrix(-0.4,0,0,-0.4,-4,0)"
         inkscape:connector-curvature="0" />
    </marker>
    <marker
       inkscape:stockid="Arrow1Lend"
       orient="auto"
       refY="0"
       refX="0"
       id="Arrow1Lend"
       style="overflow:visible"
       inkscape:isstock="true">
      <path
         id="path22935"
         d="M 0,0 5,-5 -12.5,0 5,5 Z"
         style="fill:#000000;fill-opacity:1;fill-rule:evenodd;stroke:#000000;stroke-width:1.00000003pt;stroke-opacity:1"
         transform="matrix(-0.8,0,0,-0.8,-10,0)"
         inkscape:connector-curvature="0" />
    </marker>
    <clipPath
       clipPathUnits="userSpaceOnUse"
       id="clipPath1518">
      <path
         d="M 0,191.459 H 397.839 V 0 H 0 Z"
         id="path1516"
         inkscape:connector-curvature="0" />
    </clipPath>
  </defs>
  <sodipodi:namedview
     id="base"
     pagecolor="#ffffff"
     bordercolor="#666666"
     borderopacity="1.0"
     inkscape:pageopacity="0.0"
     inkscape:pageshadow="2"
     inkscape:zoom="0.98994949"
     inkscape:cx="137.7248"
     inkscape:cy="194.83162"
     inkscape:document-units="mm"
     inkscape:current-layer="layer1"
     showgrid="false"
     inkscape:window-width="2470"
     inkscape:window-height="1385"
     inkscape:window-x="2650"
     inkscape:window-y="27"
     inkscape:window-maximized="1" />
  <metadata
     id="metadata64495">
    <rdf:RDF>
      <cc:Work
         rdf:about="">
        <dc:format>image/svg+xml</dc:format>
        <dc:type
           rdf:resource="http://purl.org/dc/dcmitype/StillImage" />
        <dc:title></dc:title>
      </cc:Work>
    </rdf:RDF>
  </metadata>
  <g
     inkscape:label="Layer 1"
     inkscape:groupmode="layer"
     id="layer1"
     transform="translate(-35.56515,-57.40843)">
    <path
       style="fill:none;stroke:#000000;stroke-width:1.16499996;stroke-linecap:butt;stroke-linejoin:miter;stroke-miterlimit:4;stroke-dasharray:none;stroke-opacity:1;marker-end:url(#marker65299)"
       d="M 43.297662,145.72544 V 74.364481"
       id="path65123"
       inkscape:connector-curvature="0" />
    <path
       inkscape:connector-curvature="0"
       id="path65225"
       d="M 37.251124,141.06482 149.0132,141.01322"
       style="fill:none;stroke:#000000;stroke-width:1.23707938;stroke-linecap:butt;stroke-linejoin:miter;stroke-miterlimit:4;stroke-dasharray:none;stroke-opacity:1;marker-end:url(#Arrow1Send)" />
    <path
       inkscape:connector-curvature="0"
       id="path874"
       style="fill:#532371;fill-opacity:1;fill-rule:nonzero;stroke:none;stroke-width:0.86116129"
       d="m 112.5231,66.226761 c 1.86043,-1.111468 4.10586,-2.837331 5.3945,-4.462083 l -0.59055,3.571028 1.83066,3.122213 c -1.78481,-1.055961 -4.49878,-1.86128 -6.63461,-2.231158" />
    <path
       inkscape:connector-curvature="0"
       id="path66266"
       style="fill:#532371;fill-opacity:1;fill-rule:nonzero;stroke:none;stroke-width:0.86116129"
       d="m 141.11562,77.69066 c 2.0342,0.747374 4.78821,1.407666 6.86186,1.387685 l -3.14776,1.786793 -1.27604,3.386919 c -0.30155,-2.051746 -1.38234,-4.668244 -2.43806,-6.561397" />
    <path
       d="m 123.99084,104.20653 c -2.13612,0.36543 -4.85297,1.16496 -6.641,2.21538 l 1.83911,-3.11747 -0.58095,-3.572397 c 1.28364,1.628757 3.5243,3.358977 5.38284,4.474487"
       style="fill:#e97e2d;fill-opacity:1;fill-rule:nonzero;stroke:none;stroke-width:0.86116129;stroke-opacity:1"
       id="path66268"
       inkscape:connector-curvature="0" />
    <path
       inkscape:connector-curvature="0"
       id="path66270"
       style="fill:#e97e2d;fill-opacity:1;fill-rule:nonzero;stroke:none;stroke-width:0.86116129;stroke-opacity:1"
       d="m 72.864385,111.19051 c -2.010461,-0.80908 -4.743046,-1.55306 -6.816347,-1.59634 l 3.200796,-1.68995 1.378754,-3.34642 c 0.238826,2.05999 1.239316,4.70823 2.236797,6.63271" />
    <path
       d="m 81.193815,78.564093 c 1.586881,-1.475922 3.421785,-3.633163 4.3422,-5.49146 l 0.169224,3.615572 2.443058,2.67039 C 86.182139,78.699191 83.35977,78.479181 81.193815,78.564093"
       style="fill:#532371;fill-opacity:1;fill-rule:nonzero;stroke:none;stroke-width:0.86116129"
       id="path66272"
       inkscape:connector-curvature="0" />
    <g
       id="g1512"
       transform="matrix(0.35277777,0,0,-0.35277777,-17.188841,54.651905)">
      <g
         id="g1514"
         clip-path="url(#clipPath1518)"
         transform="translate(73.488599,-125.00638)">
        <text
           transform="scale(1,-1)"
           style="font-variant:normal;font-weight:300;font-stretch:normal;font-size:10px;font-family:'HK Grotesk Light';-inkscape-font-specification:HKGrotesk-Light;writing-mode:lr-tb;fill:#231f20;fill-opacity:1;fill-rule:nonzero;stroke:none"
           id="text1522"
           x="214.7869"
           y="-23.208067">
          <tspan
             x="214.7869"
             sodipodi:role="line"
             id="tspan1520"
             y="-23.208067"
             style="font-size:18px">State trajectory</tspan>
        </text>
      </g>
    </g>
    <text
       y="101.11761"
       x="54.240059"
       style="font-variant:normal;font-weight:300;font-stretch:normal;font-size:3.52777767px;font-family:'HK Grotesk Light';-inkscape-font-specification:HKGrotesk-Light;text-align:center;writing-mode:lr-tb;text-anchor:middle;fill:#231f20;fill-opacity:1;fill-rule:nonzero;stroke:none;stroke-width:0.35277775"
       id="text1522-9">
      <tspan
         x="54.240059"
         sodipodi:role="line"
         id="tspan1520-1"
         y="101.11761"
         style="font-size:4.93888855px;text-align:center;text-anchor:middle;stroke-width:0.35277775">Initial</tspan>
      <tspan
         x="54.240059"
         sodipodi:role="line"
         y="107.29121"
         style="font-size:4.93888855px;text-align:center;text-anchor:middle;stroke-width:0.35277775"
         id="tspan66340">state</tspan>
    </text>
    <path
       style="fill:none;stroke:#e97e2d;stroke-width:1.36500001;stroke-linecap:butt;stroke-linejoin:miter;stroke-miterlimit:4;stroke-dasharray:none;stroke-opacity:1"
       d="m 58.264755,92.538811 c 1.201431,-0.741244 0.72295,0.829196 1.202714,1.069078 0.08399,0.04199 0.450546,-0.042 0.53454,0 0.160361,0.08018 0.240541,0.320722 0.400905,0.400904 0.07968,0.03984 0.204271,-0.063 0.267269,0 0.0315,0.0315 -0.0315,0.102138 0,0.133634 0.0315,0.0315 0.09379,-0.01992 0.133633,0 0.05635,0.02817 0.07729,0.105462 0.133635,0.133635 0.18433,0.09217 0.119534,-0.16184 0.267269,0.133636 0.01992,0.03984 -0.0315,0.102134 0,0.133633 0.33755,0.33755 0.154054,0.05135 0.400905,0.133636 0.967973,0.322657 -0.21069,-0.03853 0.400904,0.267269 0.03984,0.01992 0.09379,-0.01992 0.133636,0 0.05635,0.02817 0.07729,0.105463 0.133633,0.133635 0.03984,0.01992 0.09379,-0.01992 0.133636,0 0.556157,0.278078 -0.142862,-0.0092 0.133636,0.267269 0.0315,0.0315 0.09379,-0.01992 0.133633,0 0.05635,0.02817 0.07729,0.105463 0.133636,0.133636 0.03984,0.01992 0.09379,-0.01992 0.133633,0 0.03548,0.01773 0.383164,0.365421 0.400904,0.400902 0.01992,0.03984 -0.01992,0.0938 0,0.133636 0.06575,0.1315 0.468789,0.40304 0.534541,0.53454 0.01992,0.03984 -0.0315,0.102135 0,0.133633 0.0315,0.0315 0.102137,-0.0315 0.133633,0 0.063,0.063 -0.03984,0.187587 0,0.267269 0.02817,0.05635 0.113715,0.07387 0.133636,0.133636 0.02817,0.08452 -0.03984,0.187584 0,0.267269 0.01992,0.03984 0.102137,-0.0315 0.133635,0 0.521542,0.521541 -0.03093,0.07177 0.133633,0.400904 0.05635,0.112692 0.210926,0.15458 0.267272,0.267269 0.01992,0.03984 -0.0315,0.102137 0,0.133636 0.0315,0.0315 0.102134,-0.0315 0.133633,0 0.02732,0.02732 -0.02649,0.347919 0,0.400904 0.02817,0.05635 0.113715,0.07387 0.133636,0.133636 0.192863,0.578586 -0.255469,-0.04912 0.133633,0.534538 0.03495,0.05242 0.09869,0.08122 0.133636,0.133636 0.05525,0.08288 0.07387,0.187584 0.133635,0.267269 0.07559,0.100793 0.178179,0.178178 0.267269,0.267268 0.04454,0.04455 0.105463,0.07729 0.133636,0.133639 0.01992,0.0398 0,0.0891 0,0.13363 0.04454,0.0891 0.07838,0.18439 0.133633,0.26727 0.203864,0.3058 0.105783,-0.0836 0.267272,0.40091 0.01408,0.0423 -0.0315,0.10213 0,0.13363 0.0315,0.0315 0.102134,-0.0315 0.133633,0 0.063,0.063 -0.03984,0.18759 0,0.26727 0.02817,0.0563 0.105463,0.0773 0.133635,0.13363 0.02649,0.053 -0.02732,0.37359 0,0.40091 0.0315,0.0315 0.102138,-0.0315 0.133634,0 0.0315,0.0315 0,0.0891 0,0.13363 0,0.11943 -0.0213,0.62559 0,0.66818 0.02817,0.0563 0.105462,0.0773 0.133635,0.13363 0.05345,0.10691 -0.05345,0.294 0,0.40091 0.02817,0.0563 0.105463,0.0773 0.133636,0.13363 0.05345,0.10691 -0.05345,0.294 0,0.40091 0.02817,0.0563 0.10546,0.0773 0.133633,0.13363 0.01992,0.0398 0,0.0891 0,0.13363 0,0.0891 -0.02817,0.18276 0,0.26727 0.01992,0.0598 0.113715,0.0739 0.133636,0.13364 0.02037,0.0611 -0.02973,0.47507 0,0.53454 0.02817,0.0563 0.105463,0.0773 0.133636,0.13363 0.04199,0.084 -0.042,0.45055 0,0.53454 0.02817,0.0564 0.10546,0.0773 0.133633,0.13364 0.01992,0.0398 -0.01992,0.0938 0,0.13363 0.02817,0.0564 0.09869,0.0812 0.133635,0.13364 0.05525,0.0829 0.07838,0.18439 0.133634,0.26727 0.06989,0.10483 0.210925,0.15457 0.267271,0.26727 0.03984,0.0797 -0.03984,0.18758 0,0.26726 0.02817,0.0564 0.10546,0.0773 0.133633,0.13364 0.01992,0.0398 -0.01992,0.0938 0,0.13363 0.305798,0.6116 -0.05539,-0.56706 0.267272,0.40091 0.01408,0.0423 -0.01992,0.0938 0,0.13363 0.305795,0.6116 -0.05539,-0.56706 0.267269,0.40091 0.02817,0.0845 -0.04942,0.19314 0,0.26727 0.06989,0.10483 0.197381,0.16244 0.267268,0.26727 0.02471,0.0371 -0.01992,0.0938 0,0.13363 0.01278,0.0256 0.508958,0.52175 0.534541,0.53454 0.03984,0.0199 0.102134,-0.0315 0.133633,0 0.0315,0.0315 -0.0315,0.10214 0,0.13363 0.07043,0.0704 0.184393,0.0784 0.267269,0.13364 0.05242,0.0349 0.08122,0.0987 0.133635,0.13363 0.08288,0.0553 0.196837,0.0632 0.267269,0.13364 0.0315,0.0315 -0.0315,0.10214 0,0.13364 0.521542,0.52154 0.07177,-0.0309 0.400905,0.13363 0.05635,0.0282 0.07387,0.11371 0.133636,0.13363 0.08452,0.0282 0.18275,-0.0282 0.267268,0 0.05976,0.0199 0.07729,0.10547 0.133636,0.13364 0.03984,0.0199 0.09137,-0.0141 0.133633,0 0.0945,0.0315 0.172776,0.10213 0.267272,0.13363 0.04226,0.0141 0.09379,-0.0199 0.133633,0 0.05635,0.0282 0.07729,0.10547 0.133636,0.13364 0.03984,0.0199 0.09379,-0.0199 0.133633,0 0.05635,0.0282 0.07729,0.10546 0.133636,0.13363 0.03984,0.0199 0.09042,-0.0108 0.133635,0 0.136658,0.0342 0.264248,0.0995 0.400905,0.13364 0.04321,0.0108 0.09137,-0.0141 0.133633,0 0.0945,0.0315 0.169598,0.1141 0.267271,0.13363 0.131038,0.0262 0.271259,-0.0324 0.400902,0 0.06112,0.0153 0.07387,0.11372 0.133636,0.13364 0.08452,0.0282 0.18084,-0.0216 0.267269,0 0.645316,0.16133 -0.0066,0.0635 0.400905,0.26727 0.03984,0.0199 0.09379,-0.0199 0.133635,0 0.05635,0.0282 0.07729,0.10546 0.133633,0.13363 0.106911,0.0534 0.293998,-0.0534 0.400905,0 0.05635,0.0282 0.07729,0.10546 0.133636,0.13364 0.07086,0.0354 0.577262,-0.0303 0.668173,0 0.05976,0.0199 0.07729,0.10546 0.133636,0.13363 0.03455,0.0173 0.707088,0 0.801807,0 0.102769,0 0.67819,-0.0309 0.801809,0 0.647229,0.16181 0.157705,0.13364 0.668173,0.13364 0.311814,0 0.623631,0 0.935445,0 0.08909,0 0.178179,0 0.267269,0 0.08909,0 0.18275,-0.0282 0.267269,0 0.05976,0.0199 0.07387,0.11371 0.133636,0.13363 0.06117,0.0204 0.593584,0 0.668173,0 0.356359,0 0.712719,0 1.069078,0 0.356359,0 0.712719,0 1.069078,0 0.08909,0 0.182751,0.0282 0.267269,0 0.05976,-0.0199 0.07387,-0.11371 0.133636,-0.13363 0.169037,-0.0563 0.365503,0.0563 0.534537,0 0.05976,-0.0199 0.07729,-0.10547 0.133636,-0.13364 0.03984,-0.0199 0.08909,0 0.133636,0 0.04454,0 0.08909,0 0.133633,0 0.222726,0 0.44545,0 0.668174,0 0.04455,0 0.09379,0.0199 0.133635,0 0.05635,-0.0282 0.07729,-0.10546 0.133636,-0.13363 0.03984,-0.0199 0.08909,0 0.133633,0 0.04454,0 0.08909,0 0.133636,0 0.267269,0 0.534538,0 0.801809,0 0.04454,0 0.08909,0 0.133633,0 0.04454,0 0.0938,0.0199 0.133636,0 0.05635,-0.0282 0.07387,-0.11372 0.133636,-0.13364 0.07367,-0.0246 0.688398,0 0.801806,0 0.44545,0 0.8909,0 1.33635,0 0.09295,0 0.619847,0.0242 0.668173,0 0.05635,-0.0282 0.07729,-0.10546 0.133633,-0.13363 0.04063,-0.0203 0.442262,0 0.534541,0 0.44545,0 0.890897,0 1.336347,0 0.08909,0 0.178181,0 0.267268,0 0.08909,0 0.182753,0.0282 0.267272,0 0.05976,-0.0199 0.07729,-0.10546 0.133633,-0.13364 0.0335,-0.0168 1.019567,0 1.069078,0 0.04454,0 0.08909,0 0.133636,0 0.04454,0 0.09379,0.0199 0.133636,0 0.05634,-0.0282 0.07729,-0.10546 0.133633,-0.13363 0.07968,-0.0398 0.204274,0.063 0.267269,0 0.0315,-0.0315 -0.0315,-0.10214 0,-0.13364 0.0315,-0.0315 0.08909,0 0.133635,0 0.08909,0 0.187585,0.0398 0.267269,0 0.03984,-0.0199 -0.03984,-0.11371 0,-0.13363 0.07969,-0.0398 0.182753,0.0282 0.267272,0 0.05976,-0.0199 0.07729,-0.10547 0.133633,-0.13364 0.03984,-0.0199 0.08909,0 0.133635,0 0.133634,0 0.271259,0.0324 0.400905,0 0.06111,-0.0153 0.07729,-0.10546 0.133633,-0.13363 0.03984,-0.0199 0.09138,0.0141 0.133636,0 0.09449,-0.0315 0.172775,-0.10214 0.267269,-0.13364 0.04226,-0.0141 0.09379,0.0199 0.133636,0 0.05634,-0.0282 0.07729,-0.10546 0.133635,-0.13363 0.03984,-0.0199 0.09137,0.0141 0.133633,0 0.09449,-0.0315 0.172776,-0.10214 0.267269,-0.13364 0.04226,-0.0141 0.0938,0.0199 0.133636,0 0.05635,-0.0282 0.07387,-0.11371 0.133636,-0.13363 0.08452,-0.0282 0.18275,0.0282 0.267269,0 0.05976,-0.0199 0.07729,-0.10546 0.133635,-0.13363 0.03984,-0.0199 0.09379,0.0199 0.133633,0 0.112692,-0.0563 0.154581,-0.21093 0.267269,-0.26728 0.03984,-0.0199 0.08909,0 0.133636,0 0.08909,-0.0445 0.184393,-0.0784 0.267269,-0.13363 0.05242,-0.0349 0.07729,-0.10546 0.133636,-0.13364 0.03984,-0.0199 0.102137,0.0315 0.133635,0 0.0315,-0.0315 -0.0315,-0.10213 0,-0.13363 0.063,-0.063 0.204272,0.063 0.267269,0 0.0315,-0.0315 -0.0315,-0.10214 0,-0.13363 0.0315,-0.0315 0.102137,0.0315 0.133633,0 0.0315,-0.0315 -0.0315,-0.10214 0,-0.13364 0.0315,-0.0315 0.0938,0.0199 0.133636,0 0.05635,-0.0282 0.07729,-0.10546 0.133636,-0.13363 0.07968,-0.0399 0.187584,0.0398 0.267269,0 0.295473,-0.14774 0.04147,-0.0829 0.133635,-0.26727 0.02817,-0.0563 0.08909,-0.0891 0.133634,-0.13364 0.04454,-0.0445 0.07729,-0.10546 0.133635,-0.13363 0.03984,-0.0199 0.102137,0.0315 0.133633,0 0.0315,-0.0315 -0.0315,-0.10214 0,-0.13364 0.07043,-0.0704 0.184394,-0.0784 0.267272,-0.13363 0.10483,-0.0699 0.154577,-0.21093 0.267269,-0.26727 0.07968,-0.0398 0.187584,0.0398 0.267269,0 0.05635,-0.0282 0.07729,-0.10546 0.133638,-0.13364 0.0398,-0.0199 0.0938,0.0199 0.13363,0 0.0563,-0.0282 0.0891,-0.0891 0.13364,-0.13363 0.0445,-0.0446 0.10546,-0.0773 0.13363,-0.13364 0.0199,-0.0398 -0.0315,-0.10213 0,-0.13363 0.52154,-0.52154 0.0718,0.0309 0.40091,-0.13364 0.0563,-0.0282 0.0773,-0.10546 0.13363,-0.13363 0.0398,-0.0199 0.10214,0.0315 0.13364,0 0.0315,-0.0315 -0.0399,-0.11372 0,-0.13364 0.0797,-0.0398 0.18758,0.0399 0.26726,0 0.0399,-0.0199 -0.0398,-0.11371 0,-0.13363 0.0797,-0.0398 0.18759,0.0398 0.26727,0 0.0399,-0.0199 -0.0315,-0.10214 0,-0.13363 0.2765,-0.2765 -0.0108,0.42252 0.26727,-0.13364 0.0199,-0.0398 -0.0315,-0.10214 0,-0.13363 0.0273,-0.0273 0.34792,0.0265 0.40091,0 0.0563,-0.0282 0.0739,-0.11372 0.13363,-0.13364 0.0845,-0.0282 0.17991,0.0175 0.26727,0 1.12516,-0.22503 0.004,-0.002 0.53454,-0.26727 0.0398,-0.0199 0.10214,0.0315 0.13364,0 0.0315,-0.0315 -0.0315,-0.10214 0,-0.13363 0.0315,-0.0315 0.10213,0.0315 0.13363,0 0.0315,-0.0315 -0.0315,-0.10214 0,-0.13364 0.0315,-0.0315 0.0938,0.0199 0.13364,0 0.0563,-0.0282 0.0773,-0.10546 0.13363,-0.13363 0.0398,-0.0199 0.0938,0.0199 0.13363,0 0.1127,-0.0563 0.15459,-0.21093 0.26727,-0.26727 0.0398,-0.0199 0.10214,0.0315 0.13364,0 0.0315,-0.0315 -0.0315,-0.10214 0,-0.13364 0.0315,-0.0315 0.0938,0.0199 0.13364,0 0.0563,-0.0282 0.0773,-0.10546 0.13363,-0.13363 0.0398,-0.0199 0.0914,0.0141 0.13363,0 0.0945,-0.0315 0.17278,-0.10214 0.26727,-0.13364 0.0423,-0.0141 0.0914,0.0141 0.13364,0 0.0945,-0.0315 0.17277,-0.10213 0.26727,-0.13363 0.0423,-0.0141 0.0938,0.0199 0.13363,0 0.0563,-0.0282 0.0773,-0.10546 0.13364,-0.13363 0.0797,-0.0399 0.18758,0.0398 0.26727,0 0.0563,-0.0282 0.0773,-0.10547 0.13363,-0.13364 0.0398,-0.0199 0.0938,0.0199 0.13364,0 0.0563,-0.0282 0.0739,-0.11371 0.13363,-0.13364 0.0845,-0.0282 0.18275,0.0282 0.26727,0 0.0598,-0.0199 0.0725,-0.11835 0.13363,-0.13363 0.13364,0 0.26727,0 0.40091,0 0.0445,-0.0445 0.0739,-0.11371 0.13363,-0.13364 0.14201,-0.0473 0.39254,0.0473 0.53454,0 0.0945,-0.0315 0.17278,-0.10213 0.26727,-0.13363 0.0423,-0.0141 0.0938,0.0199 0.13364,0 0.0563,-0.0282 0.0773,-0.10546 0.13363,-0.13363 0.0595,-0.0297 0.47342,0.0204 0.53454,0 0.0598,-0.0199 0.0773,-0.10547 0.13364,-0.13364 0.0398,-0.0199 0.0891,0 0.13363,0 0.0891,0 0.18275,0.0282 0.26727,0 0.0598,-0.0199 0.0773,-0.10546 0.13363,-0.13363 0.0863,-0.0432 0.58184,0.0432 0.66818,0 0.0563,-0.0282 0.0773,-0.10547 0.13363,-0.13364 0.10691,-0.0534 0.294,0.0535 0.40091,0 0.0563,-0.0282 0.0739,-0.11371 0.13363,-0.13363 0.0737,-0.0246 0.6884,0 0.80181,0 0.62363,0 1.24726,0 1.87089,0 0.26727,0 0.53454,0 0.80181,0 0.0445,0 0.0891,0 0.13363,0 0.0445,0 0.0938,0.0199 0.13364,0 0.0563,-0.0282 0.0773,-0.10546 0.13363,-0.13364 0.0398,-0.0199 0.0891,0 0.13363,0 0.0891,0 0.17819,0 0.26728,0 0.17817,0 0.35981,-0.0349 0.53453,0 0.13813,0.0276 0.26278,0.10601 0.40091,0.13364 0.13329,0.0266 0.99564,0 1.06908,0 0.0714,0 0.62992,-0.0191 0.66817,0 0.0564,0.0282 0.0773,0.10546 0.13364,0.13363 0.0398,0.0199 0.0891,0 0.13363,0 0.0445,0 0.0891,0 0.13363,0 0.22273,0 0.44545,0 0.66818,0 0.13363,0 0.2683,-0.0166 0.4009,0 0.22538,0.0282 0.44332,0.10151 0.66818,0.13364 0.0882,0.0126 0.17818,0 0.26727,0 0.26727,0 0.53453,0 0.8018,0 0.31182,0 0.62363,0 0.93545,0 0.0891,0 0.17991,-0.0175 0.26727,0 0.13813,0.0276 0.26113,0.11616 0.4009,0.13363 0.35361,0.0442 0.71272,0 1.06908,0 0.0891,0 0.17939,-0.0146 0.26727,0 0.18116,0.0302 0.35444,0.0976 0.53454,0.13364 0.0874,0.0175 0.18275,-0.0282 0.26727,0 0.0945,0.0315 0.17277,0.10213 0.26727,0.13363 0.10368,0.0346 0.59265,-0.0189 0.66817,0 0.0611,0.0153 0.0739,0.11371 0.13364,0.13363 0.0845,0.0282 0.17939,-0.0147 0.26727,0 0.18116,0.0302 0.35444,0.0976 0.53454,0.13364 0.0437,0.009 0.0904,-0.0108 0.13363,0 1.11231,0.27808 -0.16131,-0.009 0.66817,0.26727 0.0423,0.0141 0.0891,0 0.13364,0 0.17818,0.0445 0.3603,0.0755 0.53454,0.13364 0.0945,0.0315 0.17064,0.10947 0.26727,0.13363 0.0864,0.0216 0.17818,0 0.26727,0 0.22272,0.0445 0.44977,0.0712 0.66817,0.13363 0.0958,0.0274 0.17064,0.10948 0.26727,0.13364 0.0864,0.0216 0.17818,0 0.26727,0 0.17818,0 0.35982,-0.0349 0.53454,0 0.0618,0.0124 0.0725,0.11835 0.13363,0.13363 0.0755,0.0189 0.5645,-0.0346 0.66818,0 0.0945,0.0315 0.17277,0.10214 0.26727,0.13364 0.0422,0.0141 0.0938,-0.0199 0.13363,0 0.0564,0.0282 0.0773,0.10546 0.13364,0.13363 0.0398,0.0199 0.0891,0 0.13363,0 0.0891,0 0.17818,0 0.26727,0 0.26727,0 0.53454,0 0.80181,0 0.13363,0 0.27412,-0.0423 0.4009,0 0.0598,0.0199 0.0739,0.11372 0.13364,0.13364 0.12027,0.0401 0.28063,-0.0401 0.4009,0 0.0945,0.0315 0.17064,0.10947 0.26727,0.13363 0.12964,0.0324 0.27126,-0.0324 0.40091,0 0.13665,0.0342 0.26424,0.0995 0.4009,0.13364 0.17705,0.0443 0.48439,-0.0459 0.66817,0 0.0611,0.0153 0.0739,0.11371 0.13364,0.13363 0.0739,0.0246 0.66723,0 0.80181,0 0.0445,0 0.0938,-0.0199 0.13363,0 0.0564,0.0282 0.0773,0.10546 0.13364,0.13364 0.0685,0.0342 0.4274,-0.0268 0.53454,0 0.13665,0.0342 0.26277,0.10601 0.4009,0.13363 0.24357,0.0487 0.56973,-0.0774 0.80181,0 0.0423,0.0141 -0.0315,0.10214 0,0.13364 0.0315,0.0315 0.0891,0 0.13363,0 0.0445,0 0.0891,0 0.13364,0 0.22272,0 0.44545,0 0.66817,0 0.0891,0 0.17991,-0.0175 0.26727,0 0.13813,0.0276 0.26425,0.0995 0.40091,0.13363 0.16714,0.0418 0.37093,-0.0545 0.53454,0 0.0598,0.0199 0.0739,0.11371 0.13363,0.13364 0.0845,0.0282 0.17818,0 0.26727,0 0.0445,0 0.0938,-0.0199 0.13363,0 0.0564,0.0282 0.0773,0.10546 0.13364,0.13363 0.0407,0.0203 0.34072,0 0.4009,0 0.22273,0 0.44545,0 0.66818,0 0.0891,0 0.17939,-0.0147 0.26727,0 0.18116,0.0302 0.35444,0.0976 0.53453,0.13363 0.12028,0.0241 0.27796,0 0.40091,0 0.26727,0 0.53454,0 0.80181,0 0.26727,0 0.53454,0 0.80181,0 0.0602,0 0.36023,0.0204 0.4009,0 0.0564,-0.0282 0.0773,-0.10546 0.13363,-0.13363 0.084,-0.042 0.45055,0.042 0.53454,0 0.0564,-0.0282 0.0773,-0.10546 0.13364,-0.13363 0.10691,-0.0535 0.294,0.0534 0.4009,0 0.0564,-0.0282 0.0773,-0.10547 0.13364,-0.13364 0.0398,-0.0199 0.10214,0.0315 0.13363,0 0.0315,-0.0315 -0.0315,-0.10214 0,-0.13363 0.0668,-0.0668 0.33409,0.0668 0.40091,0 0.0315,-0.0315 -0.0398,-0.11372 0,-0.13364 0.0797,-0.0398 0.18758,0.0398 0.26727,0 0.0398,-0.0199 -0.0315,-0.10214 0,-0.13363 0.063,-0.063 0.18758,0.0398 0.26727,0 0.11269,-0.0563 0.15458,-0.21093 0.26727,-0.26727 0.0398,-0.0199 0.10213,0.0315 0.13363,0 0.0315,-0.0315 -0.0315,-0.10214 0,-0.13364 0.0315,-0.0315 0.10214,0.0315 0.13364,0 0.0315,-0.0315 -0.0315,-0.10213 0,-0.13363 0.0315,-0.0315 0.0938,0.0199 0.13363,0 0.0564,-0.0282 0.0891,-0.0891 0.13364,-0.13364 0.0445,-0.0445 0.0891,-0.0891 0.13363,-0.13363 0.0445,-0.0446 0.0773,-0.10546 0.13363,-0.13364 0.0797,-0.0398 0.20428,0.063 0.26727,0 0.0315,-0.0315 -0.0315,-0.10213 0,-0.13363 0.0315,-0.0315 0.0938,0.0199 0.13364,0 0.16036,-0.0802 0.24054,-0.32073 0.4009,-0.4009 0.0797,-0.0399 0.18759,0.0398 0.26727,0 0.0564,-0.0282 0.0773,-0.10547 0.13364,-0.13364 0.0398,-0.0199 0.10214,0.0315 0.13363,0 0.0315,-0.0315 -0.0315,-0.10214 0,-0.13364 0.0315,-0.0315 0.0938,0.0199 0.13364,0 0.11269,-0.0563 0.15457,-0.21092 0.26727,-0.26727 0.0398,-0.0199 0.10213,0.0315 0.13363,0 0.0315,-0.0315 -0.0199,-0.0938 0,-0.13363 0.14774,-0.29547 0.0829,-0.0415 0.26727,-0.13363 0.55616,-0.27808 -0.14286,0.009 0.13364,-0.26727 0.0315,-0.0315 0.0938,0.0199 0.13363,0 0.0564,-0.0282 0.0773,-0.10547 0.13364,-0.13364 0.0398,-0.0199 0.10213,0.0315 0.13363,0 0.0315,-0.0315 -0.0315,-0.10214 0,-0.13363 0.0315,-0.0315 0.10214,0.0315 0.13363,0 0.0315,-0.0315 -0.0315,-0.10214 0,-0.13364 0.0315,-0.0315 0.10214,0.0315 0.13364,0 0.0315,-0.0315 -0.0199,-0.0938 0,-0.13363 0.0282,-0.0563 0.10546,-0.0773 0.13363,-0.13364 0.0399,-0.0797 -0.063,-0.20427 0,-0.26727 0.0315,-0.0315 0.0966,0.0247 0.13364,0 0.10483,-0.0699 0.16244,-0.19738 0.26727,-0.26727 0.0371,-0.0247 0.10213,0.0315 0.13363,0 0.0315,-0.0315 -0.0315,-0.10213 0,-0.13363 0.0315,-0.0315 0.10214,0.0315 0.13364,0 0.0668,-0.0668 -0.0668,-0.33409 0,-0.40091 0.0315,-0.0315 0.10213,0.0315 0.13363,0 0.0315,-0.0315 -0.0315,-0.10213 0,-0.13363 0.0315,-0.0315 0.10214,0.0315 0.13364,0 0.0315,-0.0315 -0.0315,-0.10214 0,-0.13364 0.0315,-0.0315 0.10213,0.0315 0.13363,0 0.0315,-0.0315 -0.0315,-0.10213 0,-0.13363 0.0315,-0.0315 0.10214,0.0315 0.13364,0 0.0315,-0.0315 0,-0.0891 0,-0.13363 0,-0.0891 -0.0398,-0.18759 0,-0.26727 0.0199,-0.0399 0.0938,0.0199 0.13363,0 0.0564,-0.0282 0.0773,-0.10547 0.13364,-0.13364 0.0398,-0.0199 0.0938,0.0199 0.13363,0 0.55616,-0.27808 -0.14286,0.009 0.13364,-0.26727 0.0315,-0.0315 0.10213,0.0315 0.13363,0 0.0315,-0.0315 -0.0141,-0.0914 0,-0.13363 0.0315,-0.0945 0.10214,-0.17278 0.13364,-0.26727 0.0141,-0.04226 -0.0315,-0.10214 0,-0.133639 0.0315,-0.0315 0.10213,0.0315 0.13363,0 0.063,-0.06299 -0.063,-0.204271 0,-0.267268 0.0315,-0.0315 0.10214,0.0315 0.13363,0 0.0414,-0.04138 -0.0414,-0.626796 0,-0.668174 0.0315,-0.0315 0.10214,0.0315 0.13364,0 0.005,-0.0054 0,-0.485463 0,-0.53454 0,-0.222724 0,-0.445447 0,-0.668174 0,-0.04454 0,-0.08909 0,-0.133633 0,-0.04454 -0.0199,-0.0938 0,-0.133636 0.0282,-0.05634 0.10546,-0.07729 0.13363,-0.133635 0.0199,-0.03984 -0.0199,-0.09379 0,-0.133633 0.0282,-0.05635 0.10547,-0.07729 0.13364,-0.133636 0.0199,-0.03984 -0.0315,-0.102137 0,-0.133636 0.0315,-0.0315 0.10214,0.0315 0.13364,0 0.0315,-0.0315 -0.0315,-0.102134 0,-0.133633 0.0315,-0.0315 0.10213,0.0315 0.13363,0 0.0315,-0.0315 -0.0199,-0.09379 0,-0.133636 0.0282,-0.05635 0.10546,-0.07729 0.13363,-0.133633 0.0398,-0.07968 -0.0398,-0.187587 0,-0.267271 0.0282,-0.05635 0.10547,-0.07729 0.13364,-0.133633 0.0123,-0.02453 -0.01,-0.400905 0,-0.400905 0.0445,0 0,0.178178 0,0.133633 0,-0.08909 0.0398,-0.187584 0,-0.267269 -0.0199,-0.03984 -0.13364,0.04454 -0.13364,0 0,-0.04454 0.0891,0 0.13364,0"
       id="path66346"
       inkscape:connector-curvature="0" />
    <path
       style="fill:none;stroke:#532371;stroke-width:1.26499999;stroke-linecap:butt;stroke-linejoin:miter;stroke-miterlimit:4;stroke-dasharray:none;stroke-opacity:1"
       d="m 155.41723,95.612407 c -0.0445,-0.222724 -0.10152,-0.44332 -0.13364,-0.668171 -0.0189,-0.132292 0,-0.267269 0,-0.400905 0,-0.311814 0,-0.623628 0,-0.935442 0,-0.08909 0,-0.178181 0,-0.267269 0,-0.04454 0.0199,-0.0938 0,-0.133636 -0.0282,-0.05635 -0.11371,-0.07387 -0.13363,-0.133636 -0.0282,-0.08452 0,-0.178178 0,-0.267268 0,-0.04455 0.0199,-0.09379 0,-0.133636 -0.0282,-0.05635 -0.11371,-0.07387 -0.13363,-0.133633 -0.0204,-0.06112 0.0297,-0.475075 0,-0.534541 -0.0282,-0.05635 -0.10547,-0.07729 -0.13364,-0.133633 -0.0199,-0.03984 0.0141,-0.09138 0,-0.133635 -0.0315,-0.09449 -0.10214,-0.172776 -0.13364,-0.267269 -0.0141,-0.04226 0.0199,-0.09379 0,-0.133636 -0.0282,-0.05635 -0.10546,-0.07729 -0.13363,-0.133636 -0.042,-0.08399 0.042,-0.450545 0,-0.534537 -0.0564,-0.112692 -0.22743,-0.147744 -0.26727,-0.267269 -0.0282,-0.08452 0.0398,-0.187587 0,-0.267272 -0.0199,-0.03984 -0.10214,0.0315 -0.13363,0 -0.52155,-0.521539 0.0309,-0.07177 -0.13364,-0.400902 -0.0564,-0.112691 -0.21092,-0.15458 -0.26727,-0.267271 -0.0199,-0.03984 0.0315,-0.102137 0,-0.133633 -0.27649,-0.276495 0.0108,0.422521 -0.26727,-0.133636 -0.0199,-0.03984 0.0199,-0.09379 0,-0.133636 -0.0657,-0.1315 -0.46879,-0.403037 -0.53454,-0.534538 -0.0199,-0.03984 0.0315,-0.102137 0,-0.133635 -0.0315,-0.0315 -0.10214,0.0315 -0.13363,0 -0.0315,-0.0315 0.0315,-0.102137 0,-0.133633 -0.0315,-0.0315 -0.10214,0.0315 -0.13364,0 -0.063,-0.063 0.0398,-0.187587 0,-0.267272 -0.0282,-0.05634 -0.10546,-0.07729 -0.13363,-0.133633 -0.0199,-0.03984 0.0199,-0.09379 0,-0.133636 -0.0171,-0.03427 -0.40776,-0.394052 -0.40091,-0.400904 0.0445,-0.04455 0.17818,0.178181 0.13364,0.133635 -0.0891,-0.08909 -0.19738,-0.162438 -0.26727,-0.267268 -0.0494,-0.07413 0.063,-0.204275 0,-0.267272 -0.063,-0.063 -0.18758,0.03984 -0.26727,0 -0.27027,-0.135136 -0.0428,-0.310121 -0.13363,-0.400902 -0.063,-0.063 -0.20428,0.063 -0.26727,0 -0.0315,-0.0315 0.0315,-0.102137 0,-0.133636 -0.0315,-0.0315 -0.10214,0.0315 -0.13364,0 -0.0315,-0.0315 0.0315,-0.102137 0,-0.133635 -0.0315,-0.0315 -0.10214,0.0315 -0.13364,0 -0.0315,-0.0315 0.0315,-0.102138 0,-0.133634 -0.0315,-0.0315 -0.10213,0.0315 -0.13363,0 -0.063,-0.063 0.063,-0.204274 0,-0.267271 -0.0315,-0.0315 -0.10214,0.0315 -0.13363,0 -0.0315,-0.0315 0.0315,-0.102134 0,-0.133633 -0.0315,-0.0315 -0.10214,0.0315 -0.13364,0 -0.0315,-0.0315 0.0315,-0.102137 0,-0.133636 -0.0315,-0.0315 -0.10213,0.0315 -0.13363,0 -0.063,-0.063 0.063,-0.204274 0,-0.267269 -0.0315,-0.0315 -0.10214,0.0315 -0.13364,0 -0.0315,-0.0315 0.0315,-0.102137 0,-0.133635 -0.0315,-0.0315 -0.10214,0.0315 -0.13363,0 -0.063,-0.063 0.063,-0.204272 0,-0.267269 -0.0315,-0.0315 -0.0938,0.01992 -0.13364,0 -0.55615,-0.278077 0.14286,0.0092 -0.13363,-0.267269 -0.0315,-0.0315 -0.10214,0.0315 -0.13364,0 -0.0315,-0.0315 0.0315,-0.102137 0,-0.133636 -0.0315,-0.0315 -0.10213,0.0315 -0.13363,0 -0.0315,-0.0315 0.0199,-0.09379 0,-0.133636 -0.0564,-0.112688 -0.21093,-0.154577 -0.26727,-0.267269 -0.0199,-0.03984 0.0315,-0.102137 0,-0.133633 -0.0315,-0.0315 -0.0938,0.01992 -0.13364,0 -0.55615,-0.278079 0.14287,0.0092 -0.13363,-0.267271 -0.0315,-0.0315 -0.10214,0.0315 -0.13364,0 -0.0315,-0.0315 0.0315,-0.102137 0,-0.133633 -0.0315,-0.0315 -0.0891,0 -0.13363,0 0,-0.04455 0.0199,-0.09379 0,-0.133636 -0.27808,-0.556157 0.009,0.142862 -0.26727,-0.133636 -0.0704,-0.07043 -0.0784,-0.18439 -0.13363,-0.267269 -0.0349,-0.05242 -0.10547,-0.07729 -0.13364,-0.133633 -0.0199,-0.03984 0.0315,-0.102137 0,-0.133635 -0.0315,-0.0315 -0.0938,0.01992 -0.13363,0 -0.55616,-0.278077 0.14286,0.0092 -0.13364,-0.267269 -0.0315,-0.0315 -0.10213,0.0315 -0.13363,0 -0.0315,-0.0315 0.0315,-0.102137 0,-0.133636 -0.0315,-0.0315 -0.10214,0.0315 -0.13364,0 -0.0315,-0.0315 0.0315,-0.102137 0,-0.133636 -0.0315,-0.0315 -0.10213,0.0315 -0.13363,0 -0.0315,-0.0315 0.0315,-0.102134 0,-0.133633 -0.0315,-0.0315 -0.0891,0 -0.13364,0 0,-0.04454 0.0199,-0.09379 0,-0.133636 -0.14773,-0.295473 -0.0829,-0.04147 -0.26727,-0.133633 -0.11269,-0.05634 -0.15458,-0.210926 -0.26727,-0.267271 -0.0398,-0.01992 -0.10213,0.0315 -0.13363,0 -0.0315,-0.0315 0.0199,-0.09379 0,-0.133633 -0.0282,-0.05635 -0.0891,-0.08909 -0.13364,-0.133636 -0.0445,-0.04454 -0.0773,-0.105463 -0.13363,-0.133636 -0.0398,-0.01992 -0.0938,0.01992 -0.13364,0 -0.0563,-0.02817 -0.0773,-0.10546 -0.13363,-0.133633 -0.0398,-0.01992 -0.0938,0.01992 -0.13364,0 -0.11269,-0.05635 -0.15458,-0.210926 -0.26726,-0.267269 -0.0399,-0.01992 -0.0938,0.01992 -0.13364,0 -0.11269,-0.05635 -0.15458,-0.210926 -0.26727,-0.267271 -0.0398,-0.01992 -0.10214,0.0315 -0.13363,0 -0.2765,-0.276495 0.42252,0.01082 -0.13364,-0.267269 -0.0398,-0.01992 -0.0938,0.01992 -0.13363,0 -0.33097,0.07409 -0.33533,-0.3013 -0.53454,-0.400905 -0.0398,-0.01992 -0.0966,0.02471 -0.13364,0 -0.10483,-0.06989 -0.16243,-0.197382 -0.26727,-0.267269 -0.0371,-0.02471 -0.0914,0.01408 -0.13363,0 -0.0945,-0.0315 -0.18439,-0.07838 -0.26727,-0.133635 -0.0524,-0.03494 -0.0773,-0.105461 -0.13364,-0.133633 -0.0398,-0.01992 -0.0966,0.02471 -0.13363,0 -0.10483,-0.06989 -0.16244,-0.197382 -0.26727,-0.267272 -0.0371,-0.02471 -0.0938,0.01992 -0.13364,0 -0.11268,-0.05634 -0.16243,-0.197382 -0.26726,-0.267269 -0.0829,-0.05525 -0.19684,-0.0632 -0.26727,-0.133633 -0.0315,-0.0315 0.0315,-0.102137 0,-0.133636 -0.52155,-0.521541 -0.0718,0.03093 -0.40091,-0.133635 -0.0619,-0.03094 -0.45594,-0.455944 -0.53454,-0.534538 -0.0445,-0.04454 -0.0773,-0.105463 -0.13363,-0.133636 -0.0399,-0.01992 -0.0891,0 -0.13364,0 -0.0891,-0.08909 -0.16244,-0.197382 -0.26727,-0.267269 -0.0371,-0.02471 -0.10213,0.0315 -0.13363,0 -0.0315,-0.0315 0.0199,-0.09379 0,-0.133635 -0.27808,-0.556155 0.009,0.142861 -0.26727,-0.133634 -0.0315,-0.0315 0.0199,-0.09379 0,-0.133635 -0.27808,-0.556157 0.009,0.142859 -0.26727,-0.133636 -0.0315,-0.0315 0.0199,-0.09379 0,-0.133633 -0.0282,-0.05635 -0.0891,-0.08909 -0.13364,-0.133636 -0.0786,-0.0786 -0.50359,-0.472654 -0.53453,-0.534538 -0.0199,-0.03984 0.0315,-0.102137 0,-0.133635 -0.2765,-0.276495 0.0108,0.422521 -0.26727,-0.133636 -0.0199,-0.03984 0.0247,-0.09657 0,-0.133633 -0.1028,-0.154194 -0.29811,-0.246711 -0.40091,-0.400905 -0.0553,-0.08288 -0.0784,-0.184393 -0.13363,-0.267269 -0.0699,-0.104833 -0.21093,-0.15458 -0.26727,-0.267271 -0.0199,-0.03984 0.0315,-0.102137 0,-0.133633 -0.0315,-0.0315 -0.10214,0.0315 -0.13364,0 -0.0315,-0.0315 0.0199,-0.09379 0,-0.133636 -0.0282,-0.05635 -0.10546,-0.07729 -0.13363,-0.133636 -0.0199,-0.03984 0.0199,-0.09379 0,-0.133633 -0.0564,-0.112691 -0.21093,-0.15458 -0.26727,-0.267269 -0.19663,-0.393263 0.30957,0.17594 -0.13363,-0.267271 -0.0445,-0.04454 -0.0891,-0.08909 -0.13364,-0.133633 -0.0446,-0.04455 -0.10546,-0.07729 -0.13364,-0.133636 -0.0199,-0.03984 0.0199,-0.09379 0,-0.133636 -0.0563,-0.112688 -0.21092,-0.154577 -0.26727,-0.267269 -0.0199,-0.03984 0.0315,-0.102137 0,-0.133633 -0.0315,-0.0315 -0.10213,0.0315 -0.13363,0 -0.0704,-0.07043 -0.0784,-0.184393 -0.13363,-0.267271 -0.035,-0.05241 -0.10547,-0.07729 -0.13364,-0.133633 -0.0199,-0.03984 0.0315,-0.102137 0,-0.133636 -0.0315,-0.0315 -0.0938,0.01992 -0.13363,0 -0.0553,-0.02765 -0.36315,-0.344263 -0.40091,-0.400905 -0.0553,-0.08288 -0.0784,-0.184393 -0.13363,-0.267269 -0.0349,-0.05242 -0.0987,-0.08122 -0.13364,-0.133635 -0.0553,-0.08288 -0.0632,-0.196837 -0.13363,-0.267269 -0.0315,-0.0315 -0.10214,0.0315 -0.13364,0 -0.0315,-0.0315 0.0247,-0.09657 0,-0.133636 -0.0699,-0.10483 -0.17818,-0.178178 -0.26727,-0.267269 -0.0445,-0.04454 -0.0812,-0.09869 -0.13363,-0.133635 -0.0829,-0.05525 -0.18439,-0.07838 -0.26727,-0.133634 -0.26474,0.01333 -0.0632,-0.196839 -0.13364,-0.267268 -0.0704,-0.07043 -0.18439,-0.07839 -0.26727,-0.133636 -0.0524,-0.03494 -0.0773,-0.105463 -0.13363,-0.133636 -0.0398,-0.01992 -0.0938,0.01992 -0.13363,0 -0.16037,-0.08018 -0.24055,-0.320723 -0.40091,-0.400905 -0.0398,-0.01992 -0.0938,0.01992 -0.13364,0 -0.16036,-0.08018 -0.24054,-0.320722 -0.4009,-0.400901 -0.12599,-0.063 -0.27491,-0.07064 -0.4009,-0.133636 -0.11269,-0.05635 -0.14775,-0.227428 -0.26727,-0.267269 -0.0845,-0.02817 -0.18759,0.03984 -0.26727,0 -0.0398,-0.01992 0.0315,-0.102137 0,-0.133636 -0.0315,-0.0315 -0.0938,0.01992 -0.13364,0 -0.11269,-0.05635 -0.15458,-0.210923 -0.26727,-0.267269 -0.0398,-0.01992 -0.0938,0.01992 -0.13363,0 -0.0564,-0.02817 -0.0739,-0.113715 -0.13364,-0.133635 -0.0845,-0.02817 -0.18275,0.02817 -0.26726,0 -0.0598,-0.01992 -0.0832,-0.09584 -0.13364,-0.133634 -0.12849,-0.09637 -0.25725,-0.195445 -0.4009,-0.267271 -0.0399,-0.01992 -0.0914,0.01408 -0.13364,0 -0.96797,-0.322657 0.21069,0.03853 -0.4009,-0.267269 -0.0399,-0.01992 -0.0938,0.01992 -0.13364,0 -0.0563,-0.02817 -0.0773,-0.105463 -0.13363,-0.133636 -0.32914,-0.164565 0.12063,0.387909 -0.40091,-0.133633 -0.0315,-0.0315 0.0315,-0.102137 0,-0.133635 -0.0315,-0.0315 -0.0914,0.01407 -0.13363,0 -0.0945,-0.0315 -0.18439,-0.07838 -0.26727,-0.133634 -0.10483,-0.06989 -0.15458,-0.210925 -0.26727,-0.267271 -0.0797,-0.03984 -0.20427,0.063 -0.26727,0 -0.0315,-0.0315 0.0315,-0.102137 0,-0.133633 -0.0315,-0.0315 -0.0938,0.01992 -0.13363,0 -0.0563,-0.02817 -0.0773,-0.105463 -0.13364,-0.133636 -0.0398,-0.01992 -0.0938,0.01992 -0.13364,0 -0.0563,-0.02817 -0.0773,-0.105463 -0.13363,-0.133636 -0.0797,-0.03984 -0.18759,0.03984 -0.26727,0 -0.11269,-0.05634 -0.15458,-0.210923 -0.26727,-0.267269 -0.0797,-0.03984 -0.20427,0.063 -0.26727,0 -0.0315,-0.0315 0.0315,-0.102137 0,-0.133633 -0.063,-0.063 -0.20427,0.063 -0.26727,0 -0.0315,-0.0315 0.0398,-0.113715 0,-0.133635 -0.0797,-0.03984 -0.18275,0.02817 -0.26727,0 -0.0598,-0.01992 -0.0739,-0.113713 -0.13363,-0.133636 -0.0845,-0.02817 -0.18084,0.02162 -0.26727,0 -0.19326,-0.04832 -0.34555,-0.204272 -0.53454,-0.267269 -0.11553,-0.03851 -0.58314,0.04252 -0.66817,0 -0.0563,-0.02817 -0.0773,-0.105463 -0.13364,-0.133636 -0.0854,-0.0427 -0.42698,0.03586 -0.53454,0 -0.0945,-0.0315 -0.17277,-0.102134 -0.26727,-0.133633 -0.0845,-0.02817 -0.17818,0 -0.26727,0 -0.17818,0 -0.35636,0 -0.53454,0 -0.0445,0 -0.0891,0 -0.13363,0 -0.0446,0 -0.0938,0.01992 -0.13363,0 -0.0563,-0.02817 -0.0773,-0.105463 -0.13364,-0.133636 -0.0398,-0.01992 -0.0891,0 -0.13364,0 -0.0445,0 -0.0891,0 -0.13363,0 -0.26727,0 -0.53454,0 -0.80181,0 -0.11199,0 -0.61138,0.0284 -0.66817,0 -0.0398,-0.01992 0.0315,-0.102137 0,-0.133633 -0.0315,-0.0315 -0.0891,0 -0.13364,0 -0.0891,0 -0.17818,0 -0.26727,0 -1.06907,0 -2.13815,0 -3.20723,0 -0.60154,0 0.12964,0.02162 -0.80181,-0.133635 -0.13181,-0.02196 -0.26727,0 -0.4009,0 -0.31182,0 -0.62363,0 -0.93545,0 -0.44545,0 -0.8909,0 -1.33635,0 -0.0445,0 -0.0891,0 -0.13363,0 -0.0445,0 -0.10214,-0.0315 -0.13363,0 -0.0315,0.0315 0.0315,0.102137 0,0.133635 -0.0322,0.03215 -0.50239,-0.03216 -0.53454,0 -0.0315,0.0315 0.0398,0.113713 0,0.133633 -0.084,0.042 -0.45055,-0.04199 -0.53454,0 -0.0564,0.02817 -0.0773,0.105463 -0.13364,0.133636 -0.0398,0.01992 -0.0938,-0.01992 -0.13363,0 -0.0564,0.02817 -0.0773,0.10546 -0.13364,0.133633 -0.0398,0.01992 -0.0891,0 -0.13363,0 -0.0446,0 -0.0891,0 -0.13364,0 -0.15468,0 -0.54886,-0.02983 -0.66817,0 -0.0966,0.02416 -0.17278,0.102137 -0.26727,0.133636 -0.0919,0.03064 -0.32206,-0.03942 -0.4009,0 -0.0564,0.02817 -0.0773,0.105463 -0.13364,0.133636 -0.0788,0.03942 -0.30898,-0.03064 -0.4009,0 -0.0945,0.0315 -0.17278,0.102137 -0.26727,0.133633 -0.12027,0.04009 -0.28064,-0.04009 -0.40091,0 -0.0598,0.01992 -0.0773,0.105463 -0.13363,0.133636 -0.0797,0.03984 -0.18759,-0.03984 -0.26727,0 -0.0563,0.02817 -0.0773,0.105463 -0.13363,0.133635 -0.0797,0.03984 -0.18276,-0.02817 -0.26728,0 -0.0945,0.0315 -0.17277,0.102135 -0.26726,0.133633 -0.0919,0.03064 -0.32206,-0.03942 -0.40091,0 -0.0563,0.02817 -0.0773,0.105463 -0.13363,0.133636 -0.0797,0.03984 -0.18759,-0.03984 -0.26727,0 -0.0564,0.02817 -0.0773,0.105461 -0.13364,0.133633 -0.0398,0.01992 -0.0938,-0.01992 -0.13363,0 -0.0563,0.02817 -0.0773,0.105463 -0.13364,0.133636 -0.0797,0.03984 -0.18275,-0.02817 -0.26727,0 -0.0945,0.0315 -0.17277,0.102137 -0.26727,0.133636 -0.0423,0.01408 -0.0914,-0.01408 -0.13363,0 -0.0945,0.0315 -0.17278,0.102137 -0.26727,0.133633 -0.0845,0.02817 -0.18275,-0.02817 -0.26727,0 -0.0945,0.0315 -0.18439,0.07839 -0.26727,0.133636 -0.0524,0.03494 -0.0739,0.113712 -0.13363,0.133635 -0.0845,0.02817 -0.18759,-0.03984 -0.26727,0 -0.0399,0.01992 0.0315,0.102135 0,0.133634 -0.0315,0.0315 -0.0914,-0.01408 -0.13364,0 -0.0945,0.0315 -0.17277,0.102137 -0.26727,0.133635 -0.0423,0.01408 -0.0938,-0.01992 -0.13363,0 -0.0563,0.02817 -0.0773,0.105461 -0.13364,0.133633 -0.12611,0.331386 -0.3603,0.07556 -0.53454,0.133636 -0.0945,0.0315 -0.17479,0.09664 -0.26727,0.133636 -0.13078,0.05231 -0.27491,0.07064 -0.4009,0.133633 -0.0564,0.02817 -0.0773,0.105463 -0.13364,0.133636 -0.12599,0.06299 -0.26424,0.09947 -0.4009,0.133635 -0.0432,0.01079 -0.0938,-0.01992 -0.13363,0 -0.0564,0.02817 -0.0773,0.105461 -0.13364,0.133634 -1.29063,0.645316 0.24922,-0.172162 -0.66817,0.133635 -0.0598,0.01992 -0.0725,0.118356 -0.13364,0.133633 -0.12964,0.03241 -0.27126,-0.03241 -0.4009,0 -0.0611,0.01527 -0.0739,0.113716 -0.13364,0.133636 -0.0845,0.02817 -0.18084,-0.02162 -0.26727,0 -0.0966,0.02416 -0.17063,0.109477 -0.26727,0.133636 -0.12964,0.03241 -0.27412,-0.04226 -0.4009,0 -0.0945,0.0315 -0.18439,0.07838 -0.26727,0.133633 -0.0524,0.03494 -0.0725,0.118356 -0.13363,0.133636 -0.12965,0.03241 -0.27126,-0.03241 -0.40091,0 -0.0611,0.01527 -0.0739,0.113712 -0.13363,0.133636 -0.0845,0.02817 -0.17991,-0.01746 -0.26727,0 -0.138131,0.02763 -0.26425,0.09947 -0.400907,0.133633 -0.08643,0.02162 -0.18084,-0.02162 -0.267269,0 -0.136657,0.03417 -0.264247,0.09947 -0.400905,0.133635 -0.04321,0.0108 -0.09379,-0.01992 -0.133635,0 -0.611593,0.305798 0.567068,-0.05539 -0.400905,0.267269 -0.08452,0.02817 -0.18275,-0.02817 -0.267269,0 -0.188989,0.063 -0.341275,0.218954 -0.534538,0.267269 -0.08643,0.02162 -0.182753,-0.02817 -0.267271,0 -0.05976,0.01992 -0.07729,0.105463 -0.133633,0.133636 -0.03984,0.01992 -0.09138,-0.01408 -0.133636,0 -0.09449,0.0315 -0.172776,0.102137 -0.267269,0.133636 -0.04226,0.01408 -0.09138,-0.01408 -0.133636,0 -0.09449,0.0315 -0.178178,0.08909 -0.267268,0.133633 -0.08909,0.04454 -0.184394,0.07838 -0.267269,0.133635 -0.05242,0.03494 -0.08122,0.09869 -0.133636,0.133634 -0.08288,0.05525 -0.184393,0.07838 -0.267269,0.133635 -0.05242,0.03494 -0.07729,0.105463 -0.133636,0.133636 -0.03984,0.01992 -0.09138,-0.01408 -0.133633,0 -0.0945,0.0315 -0.172775,0.102137 -0.267271,0.133633 -0.04226,0.01408 -0.09379,-0.01992 -0.133633,0 -0.05635,0.02817 -0.07387,0.113715 -0.133636,0.133636 -0.08452,0.02817 -0.187584,-0.03984 -0.267269,0 -0.03984,0.01992 0.0315,0.102137 0,0.133636 -0.0315,0.0315 -0.09379,-0.01992 -0.133636,0 -0.112691,0.05634 -0.162438,0.197381 -0.267269,0.267268 -0.08288,0.05525 -0.184393,0.07838 -0.267268,0.133636 -0.104834,0.06989 -0.154581,0.210923 -0.267272,0.267269 -0.03984,0.01992 -0.09379,-0.01992 -0.133633,0 -0.112691,0.05635 -0.15458,0.210923 -0.267271,0.267269 -0.03984,0.01992 -0.102135,-0.0315 -0.133634,0 -0.0315,0.0315 0.0315,0.102137 0,0.133636 -0.07043,0.07043 -0.184393,0.07838 -0.267268,0.133633 -0.121651,0.0811 -0.282459,0.341683 -0.400905,0.400904 -0.03984,0.01992 -0.09379,-0.01992 -0.133636,0 -0.1315,0.06575 -0.403037,0.468789 -0.534537,0.534541 -0.03984,0.01992 -0.102138,-0.0315 -0.133636,0 -0.0315,0.0315 0.01992,0.09379 0,0.133633 -0.278077,0.556157 0.0092,-0.142859 -0.267269,0.133636 -0.0315,0.0315 0.0315,0.102137 0,0.133635 -0.0315,0.0315 -0.09379,-0.01992 -0.133636,0 -0.05635,0.02817 -0.07729,0.105461 -0.133636,0.133633 -0.03984,0.01992 -0.09379,-0.01992 -0.133633,0 -0.556156,0.27808 0.142859,-0.0092 -0.133635,0.267269 -0.0315,0.0315 -0.09657,-0.02471 -0.133634,0 -0.157249,0.104833 -0.243657,0.296074 -0.400904,0.400905 -0.08288,0.05525 -0.19684,0.0632 -0.267272,0.133636 -0.0315,0.0315 0.0315,0.102137 0,0.133635 -0.07043,0.07043 -0.18439,0.07838 -0.267268,0.133633 -0.05242,0.03494 -0.08122,0.09869 -0.133634,0.133636 -0.08288,0.05525 -0.184393,0.07838 -0.267271,0.133633 -0.05241,0.03495 -0.08909,0.08909 -0.133633,0.133636 -0.09355,0.09354 -0.307361,0.307361 -0.400905,0.400905 -0.08909,0.08909 -0.162438,0.197381 -0.267269,0.267269 -0.0673,0.29442 -0.274912,0.07064 -0.400904,0.133635 -0.05635,0.02817 -0.07729,0.105463 -0.133636,0.133633 -0.03984,0.01992 -0.09379,-0.01992 -0.133636,0 -0.112688,0.05635 -0.154577,0.210926 -0.267269,0.267272 -0.03984,0.01992 -0.09379,-0.01992 -0.133633,0 -0.112691,0.05635 -0.15458,0.210923 -0.267271,0.267269 -0.03984,0.01992 -0.09379,-0.01992 -0.133633,0 -0.05635,0.02817 -0.07729,0.105463 -0.133636,0.133635 -0.03984,0.01992 -0.09379,-0.01992 -0.133636,0 -0.05634,0.02817 -0.07729,0.105461 -0.133633,0.133634 -0.03984,0.01992 -0.09379,-0.01992 -0.133636,0 -0.05635,0.02817 -0.07729,0.105463 -0.133635,0.133635 -0.07968,0.03984 -0.187585,-0.03984 -0.267269,0 -0.112692,0.05635 -0.154578,0.210924 -0.267269,0.267269 -0.03984,0.01992 -0.09379,-0.01992 -0.133636,0 -0.05634,0.02817 -0.07387,0.113715 -0.133633,0.133636 -0.08452,0.02817 -0.18084,-0.02162 -0.267271,0 -0.09663,0.02416 -0.172776,0.102137 -0.267269,0.133633 -0.04226,0.01408 -0.09137,-0.01408 -0.133633,0 -0.0945,0.0315 -0.172776,0.102137 -0.267272,0.133636 -0.04226,0.01408 -0.09137,-0.01408 -0.133633,0 -0.0945,0.0315 -0.172776,0.102137 -0.267271,0.133636 -0.08452,0.02817 -0.187585,-0.03984 -0.267269,0 -0.05635,0.02817 -0.07729,0.10546 -0.133633,0.133633 -0.07969,0.03984 -0.187587,-0.03984 -0.267272,0 -0.05635,0.02817 -0.07729,0.105463 -0.133633,0.133635 -0.03984,0.01992 -0.09379,-0.01992 -0.133636,0 -0.05635,0.02817 -0.07729,0.105463 -0.133636,0.133636 -0.07968,0.03984 -0.18275,-0.02817 -0.267268,0 -0.09449,0.0315 -0.172776,0.102135 -0.267269,0.133633 -0.04226,0.01408 -0.09379,-0.01992 -0.133636,0 -0.112689,0.05635 -0.154577,0.210926 -0.267269,0.267269 -0.03984,0.01992 -0.09379,-0.01992 -0.133636,0 -0.05634,0.02817 -0.07729,0.105463 -0.133633,0.133636 -0.07968,0.03984 -0.187587,-0.03984 -0.267269,0 -0.05634,0.02817 -0.07729,0.105463 -0.133635,0.133636 -0.03984,0.01992 -0.09379,-0.01992 -0.133636,0 -0.611592,0.305794 0.567068,-0.05539 -0.400905,0.267268 -0.120269,0.04009 -0.280633,-0.04009 -0.400902,0 -0.05976,0.01992 -0.07729,0.105463 -0.133635,0.133636 -0.03984,0.01992 -0.09138,-0.01408 -0.133636,0 -0.09449,0.0315 -0.172776,0.102135 -0.267269,0.133633 -0.08452,0.02817 -0.187584,-0.03984 -0.267269,0 -0.05635,0.02817 -0.07729,0.105463 -0.133636,0.133636 -0.106907,0.05345 -0.293997,-0.05345 -0.400904,0 -0.05635,0.02817 -0.07729,0.10546 -0.133633,0.133633 -0.07086,0.03543 -0.577263,-0.0303 -0.668176,0 -0.05976,0.01992 -0.07729,0.105463 -0.133633,0.133636 -0.08399,0.042 -0.450546,-0.042 -0.534541,0 -0.05634,0.02817 -0.07387,0.113713 -0.133633,0.133636 -0.06112,0.02037 -0.475075,-0.02973 -0.53454,0 -0.05635,0.02817 -0.07729,0.10546 -0.133633,0.133633 -0.08563,0.04282 -0.718818,-0.04149 -0.80181,0 -0.05634,0.02817 -0.07729,0.105463 -0.133635,0.133635 -0.03984,0.01992 -0.08909,0 -0.133633,0 -0.222727,0 -0.44545,0 -0.668176,0 -0.08909,0 -0.187585,-0.03984 -0.267269,0 -0.03984,0.01992 0.03984,0.113713 0,0.133636 -0.106908,0.05345 -0.293997,-0.05346 -0.400905,0 -0.05635,0.02817 -0.07729,0.105461 -0.133633,0.133633 -0.08751,0.04375 -0.549582,-0.03953 -0.668173,0 -0.0945,0.0315 -0.172776,0.102137 -0.267272,0.133636 -0.126775,0.04226 -0.271259,-0.03241 -0.400905,0 -0.09663,0.02416 -0.172775,0.102137 -0.267268,0.133633 -0.04226,0.01408 -0.09042,-0.0108 -0.133634,0 -0.136659,0.03417 -0.264247,0.09947 -0.400904,0.133636 -0.08643,0.02162 -0.182753,-0.02817 -0.267272,0 -0.09449,0.0315 -0.172775,0.102137 -0.267268,0.133636 -0.127524,0.04251 -0.520182,-0.037 -0.668174,0 -0.136657,0.03416 -0.264247,0.09947 -0.400905,0.133633 -0.08643,0.02162 -0.18275,-0.02817 -0.267268,0 -0.09449,0.0315 -0.172776,0.102137 -0.267269,0.133636 -0.08452,0.02817 -0.182753,-0.02817 -0.267272,0 -0.09449,0.0315 -0.172775,0.102137 -0.267269,0.133635 -0.04226,0.01408 -0.09379,-0.01992 -0.133635,0 -0.05634,0.02817 -0.07729,0.105461 -0.133633,0.133633 -0.03984,0.01992 -0.08909,0 -0.133636,0 -0.08909,0 -0.182751,-0.02817 -0.267269,0 -0.05976,0.01992 -0.07729,0.105463 -0.133636,0.133636 -0.03984,0.01992 -0.09379,-0.01992 -0.133633,0 -0.05635,0.02817 -0.07729,0.10546 -0.133636,0.133633 -0.03984,0.01992 -0.09138,-0.01408 -0.133635,0 -0.09449,0.0315 -0.172776,0.102137 -0.267269,0.133636 -0.04226,0.01408 -0.09138,-0.01408 -0.133633,0 -0.0945,0.0315 -0.172776,0.102137 -0.267272,0.133636 -0.04226,0.01408 -0.09379,-0.01992 -0.133633,0 -0.05635,0.02817 -0.07729,0.10546 -0.133636,0.133633 -0.03984,0.01992 -0.09138,-0.01408 -0.133635,0 -0.09449,0.0315 -0.172776,0.102137 -0.267269,0.133636 -0.08452,0.02817 -0.182751,-0.02817 -0.267269,0 -0.09449,0.0315 -0.172776,0.102137 -0.267269,0.133635 -0.04226,0.01408 -0.0938,-0.01992 -0.133636,0 -0.05634,0.02817 -0.07729,0.105461 -0.133635,0.133633 -0.03984,0.01992 -0.08909,0 -0.133634,0 -0.04454,0.04455 -0.07729,0.105463 -0.133635,0.133636 -0.03984,0.01992 -0.09379,-0.01992 -0.133633,0 -0.05635,0.02817 -0.07729,0.105463 -0.133636,0.133633 -0.07968,0.03984 -0.187584,-0.03984 -0.267269,0 -0.05635,0.02817 -0.07729,0.105463 -0.133636,0.133636 -0.03984,0.01992 -0.102137,-0.0315 -0.133636,0 -0.0315,0.0315 0.0315,0.102137 0,0.133636 -0.0315,0.0315 -0.102134,-0.0315 -0.133633,0 -0.0315,0.0315 0.0315,0.102137 0,0.133633 -0.06682,0.06682 -0.334086,-0.06681 -0.400904,0 -0.0315,0.0315 0.0315,0.102137 0,0.133636 -0.0315,0.0315 -0.09379,-0.01992 -0.133636,0 -0.112691,0.05634 -0.154577,0.210923 -0.267269,0.267268 -0.03984,0.01992 -0.09379,-0.01992 -0.133636,0 -0.160361,0.08018 -0.24054,0.320726 -0.400904,0.400905 -0.03984,0.01992 -0.09379,-0.01992 -0.133633,0 -0.160362,0.08018 -0.240544,0.320723 -0.400905,0.400905 -0.03984,0.01992 -0.102137,-0.0315 -0.133636,0 -0.0315,0.0315 0.0315,0.102137 0,0.133635 -0.0315,0.0315 -0.102137,-0.0315 -0.133633,0 -0.0315,0.0315 0.0315,0.102135 0,0.133634 -0.0315,0.0315 -0.09379,-0.01992 -0.133635,0 -0.06188,0.03094 -0.455944,0.455943 -0.534538,0.53454 -0.07036,0.07035 -0.36522,0.32953 -0.400905,0.400904 0,0.35636 0.04454,-0.04454 -0.133636,0.133634 -0.0315,0.0315 0.0315,0.102137 0,0.133635 -0.0315,0.0315 -0.102137,-0.0315 -0.133635,0 -0.0315,0.0315 0.0315,0.102137 0,0.133636 -0.0315,0.0315 -0.102135,-0.0315 -0.133633,0 -0.0315,0.0315 0.01992,0.09379 0,0.133633 -0.02817,0.05635 -0.105463,0.07729 -0.133636,0.133636 -0.01992,0.03984 0.0315,0.102137 0,0.133633 -0.0315,0.0315 -0.102137,-0.0315 -0.133633,0 -0.0315,0.0315 0.0315,0.102137 0,0.133636 -0.0315,0.0315 -0.102137,-0.0315 -0.133636,0 -0.0315,0.0315 0.0315,0.102137 0,0.133636 -0.0315,0.0315 -0.102137,-0.0315 -0.133636,0 -0.0315,0.0315 0.0315,0.102137 0,0.133633 -0.0315,0.0315 -0.09379,-0.01992 -0.133633,0 -0.05635,0.02817 -0.07729,0.105463 -0.133636,0.133635 -0.03984,0.01992 -0.102137,-0.0315 -0.133635,0 -0.0315,0.0315 0.0315,0.102137 0,0.133636 -0.0315,0.0315 -0.102135,-0.0315 -0.133633,0 -0.063,0.063 0.06299,0.204272 0,0.267269 -0.0315,0.0315 -0.102138,-0.0315 -0.133636,0 -0.0315,0.0315 0.0315,0.102137 0,0.133633 -0.0315,0.0315 -0.102137,-0.0315 -0.133633,0 -0.0315,0.0315 0.01992,0.0938 0,0.133636 -0.02817,0.05635 -0.105463,0.07729 -0.133636,0.133636 -0.01992,0.03984 0.0315,0.102137 0,0.133633 -0.063,0.063 -0.204274,-0.063 -0.267269,0 -0.0315,0.0315 0.01992,0.09379 0,0.133635 -0.27808,0.556157 0.0092,-0.142861 -0.267271,0.133636 -0.0315,0.0315 0.0315,0.102135 0,0.133633 -0.0315,0.0315 -0.102135,-0.0315 -0.133633,0 -0.0315,0.0315 0.0315,0.102137 0,0.133636 -0.276495,0.276495 0.01082,-0.422521 -0.267269,0.133633 -0.01992,0.03984 0.0315,0.102137 0,0.133636 -0.276498,0.276495 0.01082,-0.422521 -0.267272,0.133636 -0.01992,0.03984 0.0315,0.102137 0,0.133633 -0.0315,0.0315 -0.102137,-0.0315 -0.133633,0 -0.063,0.063 0.03984,0.187587 0,0.267271 -0.02817,0.05634 -0.105463,0.07729 -0.133636,0.133633 0,0.35636 0.04455,-0.04454 -0.133635,0.133636 -0.0315,0.0315 0,0.08909 0,0.133633 0,0.09295 0.02416,0.619847 0,0.668176 -0.02817,0.05634 -0.105461,0.07729 -0.133634,0.133633 -0.03984,0.07968 0.063,0.204275 0,0.267269 -0.0315,0.0315 -0.102137,-0.0315 -0.133635,0 -0.0043,0.0043 0,0.368496 0,0.400905 0,0.04454 0,0.08909 0,0.133636 0,0.04454 0.04455,0.133635 0,0.133635 -0.05486,0 0.142584,-0.695018 -0.133633,0.133633 -0.02817,0.08452 0.06299,0.204275 0,0.267269 -0.0315,0.0315 -0.102137,-0.0315 -0.133636,0 -0.0315,0.0315 0,0.08909 0,0.133636 0,0.04454 -0.0315,0.102137 0,0.133636 0.0315,0.0315 0.08909,0 0.133633,0"
       id="path66348"
       inkscape:connector-curvature="0" />
    <text
       xml:space="preserve"
       style="font-style:normal;font-weight:normal;font-size:10.58333302px;line-height:1.25;font-family:sans-serif;letter-spacing:0px;word-spacing:0px;fill:#000000;fill-opacity:1;stroke:none;stroke-width:0.26458332"
       x="54.925854"
       y="95.883446"
       id="text65813"><tspan
         sodipodi:role="line"
         id="tspan65811"
         x="54.925854"
         y="95.883446"
         style="font-size:11.28888893px;stroke-width:0.26458332">x</tspan></text>
    <text
       y="148.48891"
       x="95.677666"
       style="font-variant:normal;font-weight:300;font-stretch:normal;font-size:3.52777767px;font-family:'HK Grotesk Light';-inkscape-font-specification:HKGrotesk-Light;text-align:center;writing-mode:lr-tb;text-anchor:middle;fill:#231f20;fill-opacity:1;fill-rule:nonzero;stroke:none;stroke-width:0.35277775"
       id="text1522-9-7">
      <tspan
         x="95.677666"
         sodipodi:role="line"
         y="148.48891"
         style="font-size:4.93888855px;text-align:center;text-anchor:middle;stroke-width:0.35277775"
         id="tspan66340-9">Dimension 1</tspan>
    </text>
    <text
       y="61.160828"
       x="108.18969"
       style="font-variant:normal;font-weight:300;font-stretch:normal;font-size:3.52777767px;font-family:'HK Grotesk Light';-inkscape-font-specification:HKGrotesk-Light;text-align:center;writing-mode:lr-tb;text-anchor:middle;fill:#231f20;fill-opacity:1;fill-rule:nonzero;stroke:none;stroke-width:0.35277775"
       id="text1522-9-7-9">
      <tspan
         x="108.18969"
         sodipodi:role="line"
         y="61.160828"
         style="font-size:4.93888855px;text-align:center;text-anchor:middle;stroke-width:0.35277775"
         id="tspan66340-9-4">Reservoir returns to initial state</tspan>
    </text>
    <text
       y="117.68833"
       x="108.85786"
       style="font-variant:normal;font-weight:300;font-stretch:normal;font-size:3.52777767px;font-family:'HK Grotesk Light';-inkscape-font-specification:HKGrotesk-Light;text-align:center;writing-mode:lr-tb;text-anchor:middle;fill:#231f20;fill-opacity:1;fill-rule:nonzero;stroke:none;stroke-width:0.35277775"
       id="text1522-9-7-5">
      <tspan
         x="108.85786"
         sodipodi:role="line"
         y="117.68833"
         style="font-size:4.93888855px;text-align:center;text-anchor:middle;stroke-width:0.35277775"
         id="tspan66340-9-9">Reservoir driven by input</tspan>
    </text>
    <text
       id="text66447"
       style="font-variant:normal;font-weight:300;font-stretch:normal;font-size:3.52777767px;font-family:'HK Grotesk Light';-inkscape-font-specification:HKGrotesk-Light;text-align:center;writing-mode:lr-tb;text-anchor:middle;fill:#231f20;fill-opacity:1;fill-rule:nonzero;stroke:none;stroke-width:0.35277775"
       x="-108.18945"
       y="40.122517"
       transform="rotate(-89.613863)">
      <tspan
         id="tspan66445"
         style="font-size:4.93888855px;text-align:center;text-anchor:middle;stroke-width:0.35277775"
         y="40.122517"
         sodipodi:role="line"
         x="-108.18945">Dimension 2</tspan>
    </text>
  </g>
</svg>
